<?xml version="1.0" standalone="no"?>
<!DOCTYPE svg PUBLIC "-//W3C//DTD SVG 1.1//EN" "http://www.w3.org/Graphics/SVG/1.1/DTD/svg11.dtd" >
<svg xmlns="http://www.w3.org/2000/svg">
<metadata>Generated by IcoMoon</metadata>
<defs>
<font id="icomoon" horiz-adv-x="1024">
<font-face units-per-em="1024" ascent="960" descent="-64" />
<missing-glyph horiz-adv-x="1024" />
<glyph unicode="&#x20;" horiz-adv-x="512" d="" />
<glyph unicode="&#xe900;" glyph-name="sqlite" d="M924.928 937.771c-44.032 39.253-97.28 23.467-149.888-23.211-8.261-7.416-15.871-14.865-23.152-22.626l-0.186-0.2c-89.984-95.445-173.483-272.213-199.424-407.211 10.112-20.48 18.005-46.635 23.211-66.603 1.797-6.084 4.218-16.175 6.36-26.369l0.638-3.626s-0.811 3.029-4.096 12.629l-2.133 6.229c-0.615 1.63-1.090 2.756-1.591 3.867l0.183-0.454c-5.888 13.653-22.101 42.453-29.269 54.997-6.101-18.048-11.52-34.901-16.043-50.176 20.651-37.717 33.195-102.4 33.195-102.4s-1.067 4.224-6.272 18.859c-4.565 12.928-27.477 53.077-32.939 62.464-9.259-34.304-12.971-57.429-9.643-63.061 6.485-10.923 12.629-29.781 18.005-50.603 12.203-46.933 20.693-104.107 20.693-104.107l0.725-9.557c-0.512-11.689-0.803-25.4-0.803-39.18 0-27.479 1.159-54.688 3.431-81.579l-0.239 3.511c4.053-48.896 11.648-90.88 21.333-113.365l6.613 3.584c-14.251 44.288-20.053 102.357-17.493 169.259 3.84 102.315 27.392 225.707 70.869 354.304 73.515 194.133 175.488 349.909 268.8 424.32-85.035-76.8-200.192-325.547-234.667-417.621-38.571-103.083-65.92-199.851-82.389-292.565 28.416 86.912 120.363 124.245 120.363 124.245s45.099 55.637 97.792 135.083c-31.573-7.211-83.413-19.541-100.779-26.837-25.6-10.709-32.512-14.379-32.512-14.379s82.987 50.517 154.155 73.387c97.877 154.155 204.544 373.163 97.152 468.992zM132.48 914.603c-43.187-0.169-78.148-35.146-78.293-78.322v-708.622c0.145-43.173 35.117-78.13 78.282-78.251h401.847c-1.907 22.913-2.994 49.592-2.994 76.525 0 13.706 0.282 27.347 0.839 40.916l-0.063-1.943c-0.256 2.645-0.469 6.016-0.683 8.533-6.321 41.359-13.36 75.687-21.886 109.423l1.705-7.961c-5.163 20.053-11.733 38.315-15.744 45.099-4.949 8.405-4.181 13.227-4.139 18.432 0 5.12 0.64 10.453 1.579 16.469 3.015 17.852 6.485 32.886 10.726 47.593l-0.742-3.006 9.259 1.195c-0.725 1.493-0.597 2.773-1.323 4.139l-1.749 16.256c7.856 27.004 13.414 43.955 19.284 60.76l-2.985-9.816 8.533 0.811c-0.341 0.683-0.427 1.621-0.768 2.261l-1.835 13.483c26.88 139.947 110.379 317.568 204.8 417.749 2.816 2.944 5.675 5.461 8.448 8.277z" />
<glyph unicode="&#xe901;" glyph-name="mongodb" d="M733.568 552.32c-53.931 238.080-181.419 316.331-195.115 346.24-11.947 16.811-22.613 40.704-31.36 61.44-1.536-21.12-2.347-29.227-22.315-50.517-30.848-24.149-189.355-157.099-202.24-427.52-12.032-252.245 182.187-402.56 208.555-421.717l2.987-2.133c3.918-25.145 8.901-67.032 13.049-109.164l1.031-12.948h20.523c4.864 44.032 12.117 87.723 21.76 130.987 17.792 12.629 25.771 19.755 36.267 29.568 95.638 88.669 155.3 214.982 155.3 355.231 0 2.074-0.013 4.145-0.039 6.214l0.003-0.314c0.427 34.731-4.395 70.912-8.405 94.635zM505.899 202.667s0 353.749 11.733 353.707c9.088 0 20.907-456.32 20.907-456.32-16.256 1.92-32.64 75.093-32.64 102.613z" />
<glyph unicode="&#xe902;" glyph-name="pandas" d="M722.005 960h111.915v-772.437h-111.915zM545.963 407.893h111.915v-109.653h-111.915zM545.963 708.139h111.915v-232.363h-111.915zM545.963 230.4h111.915v-232.363h-111.915zM190.123 708.437h111.872v-772.437h-111.915zM369.877 599.253h111.915v-109.653h-111.872zM369.877 422.144h111.915v-232.405h-111.872zM369.877 899.456h111.915v-232.363h-111.872z" />
<glyph unicode="&#xe903;" glyph-name="jupyter" d="M520.533 187.733c-162.133 0-307.2 59.733-384 145.067 29.867-76.8 81.067-145.067 149.333-192s149.333-72.533 234.667-72.533 166.4 25.6 234.667 72.533 119.467 115.2 149.333 192c-76.8-85.333-221.867-145.067-384-145.067zM520.533 750.933c162.133 0 307.2-59.733 384-145.067-29.867 76.8-81.067 145.067-149.333 192-72.533 51.2-153.6 76.8-234.667 76.8-85.333 0-166.4-25.6-234.667-72.533-68.267-51.2-119.467-115.2-149.333-196.267 76.8 89.6 217.6 145.067 384 145.067zM819.2 955.733c-32.99 0-59.733-26.744-59.733-59.733s26.744-59.733 59.733-59.733v0c32.99 0 59.733 26.744 59.733 59.733s-26.744 59.733-59.733 59.733v0zM217.6 93.867c-42.415 0-76.8-34.385-76.8-76.8s34.385-76.8 76.8-76.8v0c42.415 0 76.8 34.385 76.8 76.8s-34.385 76.8-76.8 76.8v0zM153.6 861.867c-23.564 0-42.667-19.103-42.667-42.667s19.103-42.667 42.667-42.667v0c23.564 0 42.667 19.103 42.667 42.667s-19.103 42.667-42.667 42.667v0z" />
<glyph unicode="&#xe904;" glyph-name="scatter_plot" d="M580 188.667q0 52 38 90t90 38 90-38 38-90-38-90-90-38-90 38-38 90zM342 682.667q0 52 38 90t90 38 90-38 38-90-38-90-90-38-90 38-38 90zM170 340.667q0 52 38 90t90 38 90-38 38-90-38-90-90-38-90 38-38 90z" />
<glyph unicode="&#xe905;" glyph-name="mongodb1" d="M733.013 553.899c-53.888 237.227-180.992 315.179-194.645 345.003-15.019 21.035-31.275 61.099-31.275 61.099-0.085-0.811-0.171-1.323-0.213-2.091v-0.555h-0.043c-0.085-0.64-0.128-1.067-0.171-1.664v-0.64h-0.085c0-0.427-0.085-0.768-0.085-1.109v-1.109h-0.128c-0.043-0.341-0.043-0.768-0.128-1.067v-0.896h-0.085c0-0.299 0-0.64-0.085-0.896v-0.853h-0.085c0-0.427-0.043-0.939-0.085-1.365v-0.085c-0.128-0.725-0.256-1.451-0.384-2.133v-0.341h-0.085c-0.043-0.171-0.128-0.341-0.128-0.512v-0.725h-0.128v-0.939h-0.213v-0.768h-0.213v-0.896h-0.171v-0.811h-0.171v-0.725h-0.256v-0.597h-0.171v-0.768h-0.171v-0.597h-0.213v-0.555h-0.128v-0.64h-0.171c-0.043-0.043-0.043-0.128-0.043-0.171v-0.427h-0.128c-0.043-0.085-0.043-0.171-0.043-0.256v-0.256h-0.085c-0.043-0.128-0.085-0.341-0.085-0.427-0.128-0.299-0.299-0.597-0.427-0.896v-0.085c-0.085-0.085-0.171-0.213-0.213-0.299v-0.341h-0.171v-0.341h-0.213v-0.341h-0.128v-0.427h-0.256v-0.597h-0.171v-0.171h-0.171v-0.341h-0.171v-0.469h-0.171v-0.341h-0.256v-0.469h-0.171v-0.341h-0.213v-0.341h-0.128v-0.427h-0.213v-0.341h-0.171v-0.256h-0.171v-0.341h-0.256v-0.384h-0.171v-0.256h-0.213v-0.341h-0.171v-0.469h-0.213v-0.171h-0.128v-0.341h-0.256v-0.171h-0.171v-0.427h-0.171v-0.171h-0.171v-0.341h-0.213v-0.256h-0.128l-0.085-0.171v-0.171h-0.085c-0.043-0.085-0.085-0.085-0.085-0.171v-0.043h-0.043c-0.043-0.128-0.085-0.213-0.171-0.299v-0.128h-0.043c-0.213-0.256-0.341-0.512-0.512-0.768v-0.043c-0.085-0.085-0.299-0.256-0.384-0.427v-0.085h-0.043c-0.043-0.043-0.128-0.085-0.128-0.128v-0.128h-0.085l-0.128-0.128v-0.043h-0.043c0-0.043-0.085-0.085-0.128-0.171v-0.171h-0.128l-0.085-0.085v-0.085h-0.085c0-0.085-0.085-0.085-0.085-0.128v-0.128h-0.171c0-0.043-0.043-0.085-0.085-0.128v-0.256h-0.128v-0.171h-0.171v-0.256h-0.171v-0.341h-0.213v0.341h-0.213v-0.171h-0.171v-0.256h-0.213v-0.341h-0.213v-0.171h-0.171v-0.256h-0.171v-0.171h-0.171v-0.341h-0.256v-0.171h-0.171v-0.256h-0.213v-0.171h-0.171v-0.213h-0.213v-0.427h-0.085v-0.171h-0.256v-0.213h-0.171v-0.085h-0.171v-0.171h-0.213v-0.427h-0.171v-0.171h-0.213v-0.171h-0.171v-0.256h-0.213v-0.171h-0.213v-0.171h-0.171v-0.171h-0.171v-0.427h-0.171v-0.213h-0.256v-0.171h-0.171v-0.171h-0.213v-0.256h-0.171v-0.171h-0.213v-0.299h-0.171v-0.171h-0.256v-0.256h-0.085v-0.171h-0.171v-0.171h-0.213v-0.171h-0.171v-0.256h-0.213v-0.171h-0.128c-0.043-0.043-0.043-0.085-0.043-0.085v-0.085h-0.085l-0.171-0.171c0 0-0.085-0.085-0.171-0.128v-0.256h-0.171v-0.213h-0.171v-0.171h-0.171v-0.171h-0.128l-0.128-0.128v-0.128h-0.085l-0.085-0.085v-0.128h-0.085c-0.213-0.256-0.299-0.427-0.597-0.683-0.085-0.085-0.341-0.299-0.512-0.427-0.512-0.341-1.152-0.896-1.664-1.365-0.341-0.213-0.683-0.512-0.939-0.725v-0.043h-0.043c-0.683-0.555-1.323-1.067-2.091-1.664v-0.043c-1.024-0.853-2.005-1.664-3.157-2.645v0.043h-0.085c-2.432-2.005-4.992-4.267-7.936-6.784v-0.043h-0.043c-7.211-6.315-15.787-14.421-25.387-24.235l-0.811-0.811c-58.027-60.032-149.461-185.131-159.104-387.285-0.853-16.725-0.683-32.981 0.256-48.811v-0.384c4.651-79.659 29.653-147.669 60.928-202.923v-0.043c12.459-22.016 25.899-42.027 39.509-59.947v-0.043c47.019-62.080 95.019-98.859 107.264-107.776 18.816-43.648 17.067-118.571 17.067-118.571l27.477-9.173c0 0-5.589 72.576 2.261 107.605 2.432 10.965 8.192 20.309 14.891 28.245 4.523 3.2 17.92 12.843 34.005 27.52 0.768 0.811 1.195 1.536 1.877 2.304 64.896 60.501 186.112 209.493 144.555 452.224z" />
<glyph unicode="&#xe906;" glyph-name="user-tie" d="M320 768c0 106.039 85.961 192 192 192s192-85.961 192-192c0-106.039-85.961-192-192-192s-192 85.961-192 192zM768.078 512h-35.424l-199.104-404.244 74.45 372.244-96 96-96-96 74.45-372.244-199.102 404.244h-35.424c-127.924 0-127.924-85.986-127.924-192v-320h768v320c0 106.014 0 192-127.922 192z" />
<glyph unicode="&#xe907;" glyph-name="database1" d="M512 960c-282.77 0-512-71.634-512-160v-128c0-88.366 229.23-160 512-160s512 71.634 512 160v128c0 88.366-229.23 160-512 160zM512 416c-282.77 0-512 71.634-512 160v-192c0-88.366 229.23-160 512-160s512 71.634 512 160v192c0-88.366-229.23-160-512-160zM512 128c-282.77 0-512 71.634-512 160v-192c0-88.366 229.23-160 512-160s512 71.634 512 160v192c0-88.366-229.23-160-512-160z" />
<glyph unicode="&#xe908;" glyph-name="blur_linear" d="M554 212.667q-18 0-30 13t-12 31 12 30 30 12 31-12 13-30-13-31-31-13zM554 384.667q-18 0-30 12t-12 30 12 30 30 12 31-12 13-30-13-30-31-12zM554 554.667q-18 0-30 12t-12 30 12 31 30 13 31-13 13-31-13-30-31-12zM726 404.667q-22 0-22 22t22 22q20 0 20-22t-20-22zM726 576.667q-22 0-22 20 0 22 22 22 20 0 20-22 0-20-20-20zM128 810.667h768v-86h-768v86zM726 234.667q-22 0-22 22 0 20 22 20 20 0 20-20 0-22-20-22zM384 212.667q-18 0-30 13t-12 31 12 30 30 12 30-12 12-30-12-31-30-13zM214 362.667q-26 0-45 18t-19 46 19 46 45 18 45-18 19-46-19-46-45-18zM214 532.667q-26 0-45 19t-19 45 19 45 45 19 45-19 19-45-19-45-45-19zM128 42.667v86h768v-86h-768zM384 554.667q-18 0-30 12t-12 30 12 31 30 13 30-13 12-31-12-30-30-12zM384 384.667q-18 0-30 12t-12 30 12 30 30 12 30-12 12-30-12-30-30-12zM214 192.667q-26 0-45 19t-19 45 19 45 45 19 45-19 19-45-19-45-45-19z" />
<glyph unicode="&#xe909;" glyph-name="react" d="M512 539.264c-50.404 0-91.264-40.86-91.264-91.264s40.86-91.264 91.264-91.264v0c50.404 0 91.264 40.86 91.264 91.264s-40.86 91.264-91.264 91.264v0zM256.341 266.453l-20.139 5.12c-150.101 37.931-236.203 102.315-236.203 176.597s86.101 138.667 236.203 176.597l20.139 5.077 5.675-19.968c17.427-59.534 37.207-110.167 60.77-158.621l-2.615 5.96 4.309-9.088-4.309-9.088c-21.008-42.541-40.79-93.177-56.362-145.624l-1.793-7.037zM226.859 578.133c-114.091-32.043-184.107-81.067-184.107-129.963 0-48.853 70.016-97.877 184.107-129.963 16.375 51.835 33.476 94.868 53.189 136.421l-2.757-6.459c-16.998 35.141-34.1 78.175-48.354 122.486l-2.078 7.477zM767.659 266.453l-5.675 20.011c-17.397 59.48-37.192 110.1-60.795 158.523l2.598-5.904-4.309 9.088 4.309 9.088c20.991 42.518 40.785 93.152 56.391 145.59l1.806 7.071 5.675 19.968 20.181-5.077c150.059-37.931 236.16-102.315 236.16-176.64s-86.101-138.667-236.16-176.597zM746.709 448.171c20.48-44.331 37.419-87.893 50.432-129.963 114.133 32.085 184.107 81.109 184.107 129.963 0 48.896-70.016 97.877-184.107 129.963-16.34-51.795-33.441-94.829-53.171-136.372l2.739 6.41zM226.56 578.347l-5.675 19.925c-42.197 148.736-29.397 255.317 35.115 292.523 63.275 36.523 164.864-6.613 271.317-115.883l14.507-14.891-14.507-14.891c-36.676-38.083-70.629-79.417-101.171-123.302l-2.168-3.29-5.76-8.235-10.027-0.853c-59.99-4.821-115.073-14.042-168.464-27.517l6.97 1.49zM307.456 861.227c-11.435 0-21.547-2.475-30.080-7.381-42.411-24.448-49.92-109.44-20.693-224.128 38.731 9.119 85.784 16.673 133.752 21.066l4.19 0.31c28.61 40.451 57.346 75.851 88.205 109.26l-0.653-0.716c-66.56 64.811-129.579 101.589-174.72 101.589zM716.587-7.552c-0.043 0-0.043 0 0 0-60.8 0-138.88 45.781-219.904 128.981l-14.507 14.891 14.507 14.891c36.663 38.090 70.602 79.438 101.126 123.338l2.17 3.297 5.76 8.235 9.984 0.853c60.002 4.793 115.118 14 168.539 27.471l-6.961-1.487 20.139 5.077 5.717-19.968c42.112-148.651 29.355-255.275-35.157-292.437-14.374-8.272-31.607-13.151-49.98-13.151-0.504 0-1.007 0.004-1.509 0.011l0.076-0.001zM541.824 136.704c66.56-64.811 129.579-101.589 174.72-101.589h0.043c11.392 0 21.547 2.475 30.037 7.381 42.411 24.448 49.963 109.483 20.693 224.171-38.768-9.137-85.837-16.691-133.824-21.070l-4.16-0.306c-28.571-40.473-57.296-75.887-88.158-109.297l0.648 0.71zM797.44 578.347l-20.139 5.077c-46.487 12.029-101.603 21.252-158.039 25.797l-3.539 0.229-9.984 0.853-5.76 8.235c-32.67 47.183-66.61 88.519-103.593 126.902l0.297-0.31-14.507 14.891 14.507 14.891c106.411 109.227 207.957 152.363 271.317 115.883 64.512-37.205 77.312-143.787 35.157-292.48zM629.333 651.093c48.725-4.437 95.019-11.648 137.984-21.376 29.269 114.688 21.717 199.68-20.693 224.128-42.155 24.363-121.387-12.971-204.8-94.208 30.188-32.69 58.911-68.089 85.298-105.262l2.212-3.282zM307.456-7.552c-0.439-0.007-0.956-0.011-1.475-0.011-18.373 0-35.607 4.88-50.476 13.414l0.495-0.262c-64.512 37.163-77.312 143.744-35.115 292.437l5.632 19.968 20.139-5.077c49.28-12.416 103.637-21.163 161.493-25.984l10.027-0.853 5.717-8.235c32.719-47.191 66.671-88.538 103.646-126.955l-0.307 0.321 14.507-14.891-14.507-14.891c-80.981-83.2-159.061-128.981-219.776-128.981zM256.683 266.667c-29.269-114.688-21.717-199.723 20.693-224.171 42.112-24.021 121.301 13.013 204.8 94.208-30.181 32.703-58.917 68.115-85.33 105.292l-2.222 3.294c-52.126 4.681-99.18 12.235-145.102 22.757l7.161-1.381zM512 239.872c-35.115 0-71.211 1.536-107.349 4.523l-10.027 0.853-5.76 8.235c-17.419 24.566-36.456 54.116-54.294 84.456l-3.306 6.082c-14.479 24.255-31.065 55.411-46.384 87.29l-3.365 7.771-4.267 9.088 4.267 9.088c18.676 39.64 35.262 70.796 53.052 101.162l-3.303-6.1c17.664 30.549 37.077 61.013 57.6 90.539l5.76 8.235 10.027 0.853c32.164 2.894 69.575 4.544 107.371 4.544s75.208-1.65 112.166-4.882l-4.795 0.338 9.984-0.853 5.717-8.235c37.651-53.308 73.422-114.148 104.065-177.917l3.327-7.683 4.309-9.088-4.309-9.088c-33.853-71.409-69.628-132.255-110.056-189.584l2.664 3.984-5.717-8.235-9.984-0.853c-36.139-2.987-72.277-4.523-107.392-4.523zM418.261 286.123c63.147-4.736 124.331-4.736 187.52 0 32.123 46.25 63.305 99.337 90.466 154.753l3.23 7.295c-30.297 62.657-61.496 115.748-96.387 166.086l2.648-4.038c-28.060 2.262-60.749 3.552-93.739 3.552s-65.677-1.29-98.016-3.821l4.277 0.269c-32.27-46.312-63.469-99.404-90.57-154.865l-3.169-7.183c30.431-62.72 61.625-115.806 96.447-166.192l-2.709 4.144z" />
<glyph unicode="&#xe90a;" glyph-name="graphic_eq" d="M810 512.667h86v-172h-86v172zM640 170.667v512h86v-512h-86zM128 340.667v172h86v-172h-86zM470 0.667v852h84v-852h-84zM298 170.667v512h86v-512h-86z" />
<glyph unicode="&#xe90b;" glyph-name="insert_chart" d="M726 212.667v172h-86v-172h86zM554 212.667v428h-84v-428h84zM384 212.667v300h-86v-300h86zM810 810.667q34 0 60-26t26-60v-596q0-34-26-60t-60-26h-596q-34 0-60 26t-26 60v596q0 34 26 60t60 26h596z" />
<glyph unicode="&#xe90c;" glyph-name="table_chart" d="M128 128.667v384h214v-470h-128q-34 0-60 26t-26 60zM854 810.667q34 0 59-26t25-60v-128h-810v128q0 34 26 60t60 26h640zM726 42.667v470h212v-384q0-34-25-60t-59-26h-128zM426 510.667h214v-468h-214v468z" />
<glyph unicode="&#xe90d;" glyph-name="insert_chart_outlined" d="M832 810.667q34 0 60-26t26-60v-596q0-34-26-60t-60-26h-640q-34 0-60 26t-26 60v596q0 34 26 60t60 26h640zM832 124.667v600h-640v-600h640zM726 212.667h-86v172h86v-172zM554 212.667h-84v428h84v-428zM384 212.667h-86v300h86v-300z" />
<glyph unicode="&#xe90e;" glyph-name="bar_chart" d="M692 384.667h118v-256h-118v256zM452 724.667h120v-596h-120v596zM214 546.667h128v-418h-128v418z" />
<glyph unicode="&#xe90f;" glyph-name="pie_chart" d="M556 382.667h382q-14-152-122-260t-260-122v382zM556 852.667q152-14 260-122t122-260h-382v382zM470 852.667v-852q-162 16-273 138t-111 288 111 288 273 138z" />
<glyph unicode="&#xe910;" glyph-name="pie_chart_outlined" d="M554 88.667q108 14 195 101t101 195h-296v-296zM170 426.667q0-130 86-226t214-112v676q-126-16-213-112t-87-226zM554 764.667v-296h296q-14 116-97 199t-199 97zM512 852.667q176 0 301-125t125-301-125-301-301-125-301 125-125 301 125 301 301 125z" />
<glyph unicode="&#xe911;" glyph-name="bubble_chart" d="M444 562.667q0 86 59 146t145 60 146-60 60-146-60-145-146-59-145 59-59 145zM546 170.667q0 36 25 61t61 25 60-25 24-61-24-61-60-25-61 25-25 61zM170 324.667q0 56 40 96t98 40q56 0 96-39t40-97-40-97-96-39q-58 0-98 40t-40 96z" />
<glyph unicode="&#xe912;" glyph-name="multiline_chart" d="M938 642.667l-130-146q74-118 88-262h-86q-12 102-62 194l-172-194-170 172-256-256-64 64 320 320 170-172 122 140q-118 138-288 138-146 0-264-104l-60 60q144 128 324 128 204 0 346-158l122 136z" />
<glyph unicode="&#xe913;" glyph-name="show_chart" d="M150 150.667l-64 64 320 320 170-172 302 340 60-60-362-408-170 172z" />
<glyph unicode="&#xe914;" glyph-name="add_chart" d="M768 128.667v212h86v-212q0-34-26-60t-60-26h-598q-34 0-59 26t-25 60v596q0 34 25 60t59 26h512v-86h-512v-596h598zM854 640.667h128v-86h-128v-128h-86v128h-128v86h128v128h86v-128zM426 640.667h86v-426h-86v426zM598 384.667h84v-170h-84v170zM256 512.667h86v-298h-86v298z" />
<glyph unicode="&#xe915;" glyph-name="pivot_table_chart" d="M598 384.667l170 170 170-170h-128v-68q0-78-55-133t-133-55h-68v-128l-170 170 170 170v-128h68q42 0 73 30t31 74v68h-128zM214 42.667q-34 0-60 26t-26 60v384h214v-470h-128zM128 596.667v128q0 34 26 60t60 26h128v-214h-214zM426 596.667v214h384q34 0 60-26t26-60v-128h-470z" />
<glyph unicode="&#xe916;" glyph-name="stacked_bar_chart" d="M470 554.667h128v-128h-128v128zM470 384.667h128v-300h-128v300zM682 384.667h128v-86h-128v86zM682 256.667h128v-172h-128v172zM256 724.667h128v-170h-128v170zM256 512.667h128v-428h-128v428z" />
<glyph unicode="&#xe917;" glyph-name="waterfall_chart" d="M298 512.667h128v-172h-128v172zM426 724.667h128v-170h-128v170zM598 768.667h128v-128h-128v128zM128 384.667h128v-300h-128v300zM768 768.667h128v-684h-128v684z" />
<glyph unicode="&#xe918;" glyph-name="addchart" d="M938 724.667v-84h-128v-128h-84v128h-128v84h128v128h84v-128h128zM810 128.667h-596v596h256v86h-256q-36 0-61-25t-25-61v-596q0-36 25-61t61-25h596q36 0 61 25t25 61v256h-86v-256zM640 384.667v-172h86v172h-86zM470 212.667h84v342h-84v-342zM384 212.667v256h-86v-256h86z" />
<glyph unicode="&#xe919;" glyph-name="analytics" d="M810 810.667h-596q-36 0-61-25t-25-61v-596q0-36 25-61t61-25h596q36 0 61 25t25 61v596q0 36-25 61t-61 25zM384 212.667h-86v214h86v-214zM554 212.667h-84v128h84v-128zM554 426.667h-84v86h84v-86zM726 212.667h-86v428h86v-428z" />
<glyph unicode="&#xe91a;" glyph-name="qr_code" d="M128 468.667h342v342h-342v-342zM214 724.667h170v-170h-170v170zM128 42.667h342v342h-342v-342zM214 298.667h170v-170h-170v170zM554 810.667v-342h342v342h-342zM810 554.667h-170v170h170v-170zM810 128.667h86v-86h-86v86zM554 384.667h86v-86h-86v86zM640 298.667h86v-86h-86v86zM554 212.667h86v-84h-86v84zM640 128.667h86v-86h-86v86zM726 212.667h84v-84h-84v84zM726 384.667h84v-86h-84v86zM810 298.667h86v-86h-86v86z" />
<glyph unicode="&#xe91b;" glyph-name="qr_code_scanner" d="M406 660.667v-128h-128v128h128zM470 724.667h-256v-256h256v256zM406 320.667v-128h-128v128h128zM470 384.667h-256v-256h256v256zM746 660.667v-128h-128v128h128zM810 724.667h-256v-256h256v256zM554 384.667h64v-64h-64v64zM618 320.667h64v-64h-64v64zM682 384.667h64v-64h-64v64zM554 256.667h64v-64h-64v64zM618 192.667h64v-64h-64v64zM682 256.667h64v-64h-64v64zM746 320.667h64v-64h-64v64zM746 192.667h64v-64h-64v64zM938 640.667h-84v128h-128v84h212v-212zM938 0.667v212h-84v-128h-128v-84h212zM86 0.667h212v84h-128v128h-84v-212zM86 852.667v-212h84v128h128v84h-212z" />
<glyph unicode="&#xe91c;" glyph-name="stacked_line_chart" d="M86 86.667l320 320 170-172 302 340 60-60-362-408-170 172-256-256zM150 278.667l256 256 170-172 362 408-60 60-302-340-170 172-320-320z" />
<glyph unicode="&#xe91d;" glyph-name="image" d="M959.884 832c0.040-0.034 0.082-0.076 0.116-0.116v-767.77c-0.034-0.040-0.076-0.082-0.116-0.116h-895.77c-0.040 0.034-0.082 0.076-0.114 0.116v767.772c0.034 0.040 0.076 0.082 0.114 0.114h895.77zM960 896h-896c-35.2 0-64-28.8-64-64v-768c0-35.2 28.8-64 64-64h896c35.2 0 64 28.8 64 64v768c0 35.2-28.8 64-64 64v0zM832 672c0-53.020-42.98-96-96-96s-96 42.98-96 96 42.98 96 96 96 96-42.98 96-96zM896 128h-768v128l224 384 256-320h64l224 192z" />
<glyph unicode="&#xe91e;" glyph-name="images" horiz-adv-x="1152" d="M1088 832h-64v64c0 35.2-28.8 64-64 64h-896c-35.2 0-64-28.8-64-64v-768c0-35.2 28.8-64 64-64h64v-64c0-35.2 28.8-64 64-64h896c35.2 0 64 28.8 64 64v768c0 35.2-28.8 64-64 64zM128 768v-640h-63.886c-0.040 0.034-0.082 0.076-0.114 0.116v767.77c0.034 0.040 0.076 0.082 0.114 0.114h895.77c0.040-0.034 0.082-0.076 0.116-0.116v-63.884h-768c-35.2 0-64-28.8-64-64v0zM1088 0.116c-0.034-0.040-0.076-0.082-0.116-0.116h-895.77c-0.040 0.034-0.082 0.076-0.114 0.116v767.77c0.034 0.040 0.076 0.082 0.114 0.114h895.77c0.040-0.034 0.082-0.076 0.116-0.116v-767.768zM960 608c0-53.020-42.98-96-96-96s-96 42.98-96 96 42.98 96 96 96 96-42.98 96-96zM1024 64h-768v128l224 384 256-320h64l224 192z" />
<glyph unicode="&#xe91f;" glyph-name="insights" d="M896 596.667q-30 0-51-17t-30-42-1-47l-152-152q-22 6-44 0l-108 108q6 24-2 49t-29 42-53 17q-30 0-51-17t-29-42-2-49l-194-194q-24 8-48-1t-42-30-18-51q0-36 25-61t61-25q30 0 51 18t30 42 1 48l194 194q22-6 44 0l110-108q-8-24 0-49t29-42 53-17q30 0 51 17t30 42 1 49l152 150q24-6 48 2t42 29 18 53q0 34-25 59t-61 25zM640 554.667l40 88 88 40-88 40-40 88-40-88-88-40 88-40zM150 468.667l20 86 86 22-86 20-20 86-22-86-86-20 86-22z" />
<glyph unicode="&#xe920;" glyph-name="django" d="M475.563 960h167.424v-775.040c-85.888-16.299-148.949-22.827-217.429-22.827-204.416 0-310.955 92.416-310.955 269.653 0 170.709 113.067 281.6 288.128 281.6 27.179 0 47.829-2.176 72.832-8.704zM475.563 569.899c-15.859 5.539-34.142 8.738-53.171 8.738-1.182 0-2.361-0.012-3.538-0.037l0.176 0.003c-84.821 0-133.717-52.181-133.717-143.531 0-89.173 46.763-138.069 132.651-138.069 18.475 0 33.707 1.067 57.6 4.352zM909.397 701.44v-388.139c0-133.717-9.771-197.888-39.125-253.312-27.179-53.291-63.061-86.997-137.003-123.947l-155.477 73.941c73.941 34.773 109.824 65.237 132.651 112 23.936 47.829 31.531 103.296 31.531 248.96v330.539zM741.973 959.104h167.424v-171.776h-167.424z" />
<glyph unicode="&#xe921;" glyph-name="docker" d="M205.653 222.933c-29.184 0-55.637 23.893-55.637 52.907s23.893 53.035 55.68 53.035c31.915 0 55.893-23.893 55.893-52.992s-26.539-52.907-55.936-52.949zM888.832 511.488c-5.76 42.325-32 76.8-66.56 103.253l-13.44 10.667-10.837-13.227c-21.077-23.893-29.44-66.261-26.88-97.92 2.56-23.979 10.24-47.787 23.637-66.304-10.837-5.547-24.235-10.667-34.56-16.085-24.32-7.979-47.957-10.667-71.68-10.667h-684.373l-2.56-15.787c-5.12-50.432 2.56-103.253 23.979-151.040l10.411-18.56v-2.56c64-105.941 177.92-153.6 301.995-153.6 238.677 0 434.432 103.253 527.232 325.675 60.8-2.645 122.197 13.227 151.040 71.509l7.68 13.227-12.8 7.979c-34.56 21.077-81.92 23.893-121.6 13.227zM547.157 553.813h-103.595v-103.253h103.68v103.339zM547.157 683.648h-103.595v-103.253h103.68v103.125zM547.157 816.085h-103.595v-103.253h103.68v103.253zM673.877 553.813h-102.997v-103.253h103.253v103.339zM289.963 553.813h-102.955v-103.253h103.339v103.339zM419.243 553.813h-102.4v-103.253h102.997v103.339zM161.963 553.813h-102.229v-103.253h103.595v103.339zM419.243 683.648h-102.4v-103.253h102.997v103.125zM289.323 683.648h-102.144v-103.253h102.955v103.125z" />
<glyph unicode="&#xe922;" glyph-name="css3" d="M64 960h896l-81.493-920.021-367.488-103.979-365.44 104.021zM793.173 771.712l-562.347 0.128 9.088-111.872 432-0.085-10.88-115.883h-283.307l10.24-109.781h263.765l-15.616-150.315-124.16-34.304-126.123 34.56-8.021 90.027h-111.36l12.373-164.48 233.173-72.661 229.248 65.28z" />
<glyph unicode="&#xe923;" glyph-name="csswizardry" d="M1.28 259.072v653.227c0 26.368 21.333 47.701 47.659 47.701h923.861c26.624 0 47.787-21.333 47.787-47.787v-629.76c-28.587 17.493-62.293 26.283-100.565 26.283-53.504 0-94.080-12.8-121.771-38.229-27.733-25.515-41.387-56.661-41.387-94.933 0-41.387 14.080-72.107 42.667-91.733 16.64-12.16 47.36-23.040 91.307-32.512l44.8-10.24c26.88-5.675 45.653-12.8 58.027-19.627 11.947-7.808 18.347-18.645 18.347-32.64 0-24.149-12.373-40.747-37.12-48.981l-1.28-0.683h-94.293c-12.245 4.437-21.76 10.837-29.44 19.2-7.68 9.557-12.8 23.467-15.36 43.221h-84.48c0-24.149 4.395-44.587 14.080-63.147h-71.68c8.107 16.64 12.8 35.115 12.8 56.192 0 37.547-12.8 66.133-37.803 86.016-15.957 12.672-40.107 22.827-72.021 30.592l-73.387 17.152c-28.16 5.973-46.507 11.947-55.467 17.067-13.227 7.68-19.627 19.2-19.627 33.707 0 16.213 6.827 29.013 20.053 37.973 14.080 8.96 32 13.227 55.040 13.227 20.907 0 37.547-3.84 51.627-11.093 21.077-10.923 32-29.44 33.707-54.912h85.333c-1.28 44.629-17.707 79.061-49.067 102.571-31.744 23.467-69.333 35.627-113.92 35.627-53.547 0-93.653-12.8-121.728-37.547-27.307-24.875-41.387-56.747-41.387-94.293 0-41.387 14.080-72.021 42.667-91.733 17.152-11.52 47.787-22.315 91.733-32.427l44.587-10.24c26.027-5.76 45.227-12.16 58.027-19.84 11.947-7.68 18.347-18.347 18.347-32.427 0-24.32-12.8-40.107-37.547-49.067h-95.573c-12.117 4.523-22.187 10.923-29.44 19.84-7.68 9.387-13.227 24.064-15.787 43.264h-86.059c0-23.808 4.48-44.8 13.653-63.147h-89.173c14.080 22.187 23.595 47.787 28.288 76.373h-87.595c-5.973-21.76-13.312-38.315-22.4-49.067-11.093-14.080-25.6-23.040-43.52-27.52h-52.352c-19.2 4.48-35.712 15.275-49.067 32.427-19.797 23.808-29.355 59.477-29.355 106.667 0 47.787 9.813 84.053 28.16 110.080 19.2 26.155 43.947 38.827 76.373 38.827 32 0 55.467-8.96 72.107-27.477 8.96-10.24 16.64-25.6 22.187-45.909h88.747c-1.28 26.368-11.093 52.907-29.269 79.36-32.939 46.933-85.077 70.4-156.331 70.4-49.493 0-91.051-15.36-124.16-45.227zM1020.757 103.936v66.304h-22.016c-1.493 25.472-12.8 43.605-33.408 54.357-13.355 6.997-30.592 10.581-50.901 10.581-23.040 0-40.747-4.693-54.187-13.739-13.312-9.173-20.395-22.101-20.395-38.485 0-15.147 7.083-26.453 20.352-33.92 9.387-4.48 27.733-10.837 55.893-17.237l73.387-17.493c12.8-2.56 23.893-6.4 34.133-9.813z" />
<glyph unicode="&#xe924;" glyph-name="flask" d="M306.005 78.72c-38.997 30.72-80.64 60.16-109.056 101.547-59.819 73.045-105.899 157.611-137.387 246.485-19.029 57.813-25.6 119.808-50.091 175.36-25.685 40.277 4.395 84.395 48.555 97.237 19.627 3.755 54.272 22.315 12.501 9.045-37.461-27.477-41.088 24.96-2.688 28.245 26.24 3.499 35.84 24.96 26.88 44.245-28.117 18.347 68.267 38.528 19.755 65.877-50.432 54.528 70.699 65.024 40.832 3.157-7.125-47.573 84.651 8.704 63.36-46.208 21.632-26.411 81.067-6.016 79.573-43.051 31.573-2.133 42.368-28.672 71.979-30.72 30.72-13.867 86.315-24.747 96.725-59.349-30.421-24.107-100.907 49.749-104.277-16.939 9.173-98.56 6.827-200.064 42.88-293.888 17.067-56.832 58.411-101.547 95.744-145.835 35.712-43.349 84.096-73.813 133.419-99.541 43.264-20.395 89.899-33.92 137.088-42.411 19.115 14.635 52.907 68.992 82.688 46.080 1.408-25.771-59.221-53.888-2.859-51.029 33.109 9.984 56.064-25.6 83.328 6.485 25.088-29.739 104.363 19.029 86.485-41.813-24.149-15.531-59.392-6.144-83.584-27.563-39.893 19.925-71.68-17.835-115.84-13.056-49.067-8.789-98.944-12.373-148.651-12.416-81.579 6.443-164.907 9.173-242.517 37.547-43.733 12.715-86.357 37.632-124.843 62.507zM374.912 48.853c42.667-18.432 84.437-37.888 131.2-43.776 74.24-10.283 150.912-26.197 225.408-11.691-33.707 15.232-68.608-5.973-102.187 10.88-40.277-8.661-83.499 2.219-124.459 7.552-46.592 20.736-96.853 34.987-140.459 61.952-54.485 19.883 28.16-25.515 42.923-29.227 34.048-19.328-37.461 9.941-47.573 17.963-28.501 16-32.171 12.672-2.816-3.584 5.931-3.456 11.776-7.083 17.963-10.069zM293.675 106.283c41.387-15.317-0.171 29.099-19.157 26.539-8.405 14.549-32.085 23.765-15.36 31.573-30.080-10.411-31.488 39.68-45.653 32.555-31.787 10.027-12.373 45.611-50.219 67.413-3.456 23.040-37.632 43.008-48.555 77.739-4.821 17.749-38.613 68.821-17.835 21.333 17.664-45.739 48.768-84.907 74.667-124.032 20.053-37.248 43.819-76.203 80.427-99.413 12.373-11.861 24.235-29.995 41.685-33.707zM174.507 237.141c1.408 6.229 7.552-13.525 0 0zM343.211 87.936c9.173 4.096-13.184 5.12 0 0zM365.653 79.744c-2.304 11.307-10.24-6.315 0 0zM393.813 68.011c13.355 12.757-20.651 8.021 0 0zM441.941 41.131c8.149 12.032-26.027 4.565 0 0zM349.44 105.685c20.779 13.44-26.88 0.171 0 0zM370.517 95.189c-0.597 7.083-7.509-3.2 0 0zM475.904 29.397c16.981-10.667 98.987-23.467 47.616-4.395-8.576-1.792-95.189 24.491-47.616 4.395zM308.608 159.701c-1.664 7.125-26.283 7.893 0 0zM357.675 131.115c12.8 8.917-26.496 6.827 0 0zM398.933 105.813c18.347 6.912-29.739 6.955 0 0zM288.64 181.461c19.883-15.275 80.213-1.963 30.464 9.088-22.613 12.075-73.685 20.309-38.912-7.253zM426.88 97.067c8.277 14.080-34.731 8.064 0 0zM384.896 130.475c48.64-13.781-40.875 30.72-11.989 5.035l6.4-2.901zM469.12 81.792c46.037-0.427-41.6 6.315 0 0zM270.933 208.085c-1.792 8.576-11.349-0.725 0 0zM546.987 38.101c1.237 15.488-15.019-11.52 0 0zM349.483 159.957c-2.773 8.149-14.379 0.341 0 0zM275.285 213.461c26.453 1.579-36.181 11.648 0 0zM187.392 270.293c-3.285 12.672-28.757 22.784 0 0zM418.133 123.733c-4.864 5.547-2.304-1.195 0 0zM561.749 35.627c-0.427 8.405-7.808-3.2 0 0zM405.419 136.875c2.56 10.88-22.571 3.285 0 0zM298.453 204.8c19.627 2.091-31.531 13.269 0 0zM479.445 92.288c30.635 12.16-29.867 5.973 0 0zM385.28 156.16c35.328-4.523-42.027 24.021-7.723 2.56zM508.032 80.725c32.981 19.712 22.101-46.165 55.936-5.547 33.365 24.32-28.8-30.165 12.331-4.395 29.739 19.925 73.685-9.387 101.419-18.987 19.968 0.981 39.381-17.28 59.861-6.187 39.381 10.667-77.056 15.787-46.507 34.56-36.053-10.453-62.72 12.544-80.427 35.627-40.448 9.344-87.211 29.995-107.392 65.792-8.192 13.44 11.904-1.877-7.083 20.053-24.363 21.675-36.523 46.293-52.907 72.619-19.499 10.411-21.76 41.088-23.765 1.024 0.171 25.301-23.595 42.325-29.397 35.243-0.085 24.363 25.429 12.16 7.552 30.165-3.84 25.259-16.512 51.584-20.309 80.085-5.888 13.739-0.853 43.136-20.181 12.032-7.040-32.853-2.347 40.405 8.619 16.213 14.379 24.704-5.12 21.76-5.973 18.347 9.387 20.821 5.973 50.347-2.432 39.083 4.992 22.059 7.893 81.152-7.467 70.656 9.301 23.040 17.664 105.515-22.784 74.069-16.384-0.213-44.715-5.973-58.155-12.629 42.069-23.168-4.224-8.363-21.333-4.693-2.219-21.419-19.2-12.16-40.363-12.373 33.835-4.181-16.469-34.56-35.883-22.784-25.173-12.032 21.76-42.112 0.512-51.413 2.603-13.995-38.613 5.077-35.413-27.307-24.448 10.283-3.328-38.4 8.917-21.931 41.6-11.264 29.269-36.949 30.336-61.312-6.784-14.208-33.493 33.408-5.973 31.189-21.675 35.285-23.979 12.757-42.027-3.627-4.224-1.195 46.037-23.339 14.507-34.261 27.733-4.267 28.501-28.587 34.133-43.947 16.683-17.365 13.269 19.2 33.237-1.707-12.629 18.603-66.859 52.395-23.211 41.557-0.213 18.731-7.893 33.835 5.504 33.451 13.227 23.979-13.867-59.179 16-28.672 8.235 3.627 10.283 24.021 25.173-1.92 21.547-21.248 7.765-36.608-22.656-17.195 5.419-18.475 40.704-25.045 34.091-53.973 7.040-25.387 16.853-16.043 25.429-14.592 6.741-24.661 10.539-6.528 10.88 5.248 30.763-6.613 23.552-24.789 33.195-37.547 21.205-9.557-30.379 64.939 6.059 22.443 38.315-34.603 14.379-49.067-20.053-43.52 21.76 1.749 28.8-29.44 56.021-28.331 24.832-11.819 41.643-57.173-1.152-38.272-14.848 13.355-67.371 29.867-24.448 4.437 39.637-18.347 71.083-29.355 109.312-52.352 27.307-19.541 39.168-41.899 49.493-46.336-22.955-10.965-69.248 8.789-34.859 14.848-21.461 3.883-45.568 14.72-25.045-11.947 17.493-14.635 61.867-13.056 69.845-14.72-6.784-14.848-18.347-16.043 0.256-17.195-20.736-11.093 6.656-12.8 8.576-19.072zM465.621 200.533c-12.629 13.227-15.915 37.973-2.261 16.427 6.997-2.816 22.4-40.405 2.261-16.427zM603.776 112.768c7.893 0.469 0.256-5.973 0 0zM445.653 232.917c-0.469 19.968 4.565-15.403 0 0zM431.915 251.392c-15.872 30.677 20.053-8.704 0 0zM265.515 366.251c9.301 2.517 4.565-15.957 0 0zM397.952 294.485c5.717 21.504 6.741-18.091 0 0zM304.384 359.552c-6.613 11.861 13.781-11.136 0 0zM384.683 333.781c-15.019 33.707 10.667 18.432 3.328-5.547zM246.187 426.155c-6.741 11.093-17.835 43.52-14.251 53.419 3.243-16.128 34.304-69.419 15.232-22.101-21.077 39.68 25.173-12.885 29.952-22.784 2.176-9.813-13.013 2.688-2.731-20.395-18.773 26.325-11.093-14.507-28.203 11.861zM203.392 455.637c1.749 25.728 9.813-17.621 0 0zM222.635 449.024c9.173 19.413 15.573-27.051 0 0zM176.341 484.864c-15.957 15.787-27.477 30.421 0.725 9.813 10.88-0.427-24.149 33.195 2.603 10.667 28.16-5.12 13.909-46.165-3.328-20.48zM200.661 485.504c9.259 9.173 4.907-9.045 0 0zM215.595 480.683c-13.995 26.325 17.067-11.008 0 0zM185.856 509.141c-46.336 41.216 58.24-21.589 7.552-7.68zM318.592 432c-20.053 12.032-5.291 84.651 1.536 34.987 19.499 6.315-1.067-25.643 13.44-25.344-2.261-20.181-8.789-27.435-14.976-9.643zM367.659 402.987c2.005 21.888 4.181-14.933 0 0zM359.125 411.435c2.261 9.344 0.256-11.008 0 0zM194.987 522.667c-29.739 41.088 86.485-41.515 19.072-10.411-7.040 1.835-15.531 2.517-19.072 10.411zM289.536 472.533c-2.816 34.56 6.272-5.717 0 0zM361.301 426.496c5.547 19.712 0.427-13.013 0 0zM199.509 538.368c17.707 3.755 73.301-31.104 22.229-9.984-5.675 6.315-17.792 3.413-22.229 9.984zM351.403 462.635c1.877 35.371 10.581 21.12 0.085-5.035zM212.693 550.656c7.211 10.581-19.157 47.787 3.797 13.355 9.899-7.893 28.672-13.227 12.075-16.512 26.069-22.997-6.357-6.229-15.872 3.157zM343.893 473.685c4.992 40.277 4.395-23.595 0 0zM197.632 587.861c5.504 2.347 2.901-7.339 0 0zM231.851 567.467c8.789 18.517 16.213-20.608 0 0zM328.405 513.749c-0.085 7.125 1.835-10.325 0 0zM322.816 526.123c-13.397 33.109 12.459-17.493 0 0zM314.581 547.84c-2.261 13.653 7.68-17.195 0 0zM327.979 569.6c-9.216 16.213 11.605 71.424 13.909 37.163-9.685-26.667-2.773-41.6 3.968-5.803 12.501 28.16-2.688-55.595-17.877-31.36zM341.717 651.691c4.011 4.907 0.896-5.931 0 0zM318.763 198.869c-5.461 4.736 0.683-3.029 0 0zM366.123 174.933c26.283-6.784 26.155 4.096 2.347 7.296-12.8 11.947-53.163 24.533-17.024 1.493 2.389-6.059 9.984-5.931 14.677-8.789zM272.597 237.013c14.507-10.795 54.613-30.677 20.651-4.096 11.477 13.312-21.931 20.395-10.837 29.269-28.16 17.237-22.187 15.701-2.475 15.189-33.877 15.104 4.864 13.995 3.029 21.76-13.056 2.56-64.853 22.997-34.347-1.707-30.976 15.787-7.381-5.888-16.725-3.584-31.701 8.619 28.16-24.107-5.035-16 18.133-14.379 48.896-36.864 7.68-15.232-5.461-7.808 29.483-19.627 38.059-25.6zM322.091 208.555c60.203-19.371-29.483 23.723 0 0zM575.531 55.040c0.853 11.947-8.192-10.24 0 0zM601.643 44.075c13.867 13.44 0.555-21.461 22.997 3.285 0.256 17.707-0.683 28.16-25.813 6.656-6.912-3.84-9.984-20.181 2.816-9.941zM188.075 303.787c-4.267 16.768-29.867 16.64 0 0zM215.893 285.525c-10.325 17.152-36.864 15.531 0 0zM374.187 190.080c15.445-13.696 70.955-10.069 18.773-1.707-7.765 11.477-49.109 8.704-18.773 1.707zM591.701 55.723c23.808 19.968-23.040-8.875 0 0zM641.195 21.76c0.128 6.4-10.24-2.816 0 0zM641.237 30.72c26.325 27.904-25.515-1.664 0 0zM119.68 361.045c-22.443 32-13.952 46.421-35.627 72.533-4.096 20.053-37.12 65.408-17.067 17.323 18.347-28.117 23.808-71.637 52.693-89.856zM632.96 39.595c48.469 31.317-19.84 13.653 0 0zM669.952 25.088c24.32 20.821-15.36 4.352 0 0zM179.84 339.2c6.955 10.325-17.92 1.323 0 0zM662.229 35.029c23.509 15.147-5.376 12.8-4.267-1.365zM343.467 235.947c-0.853 10.24-12.416-0.853 0 0zM363.136 224.597c-6.229 12.672-9.6-2.005 0 0zM699.947 24.747c30.080 21.76-18.261 4.181-6.315-4.096zM688.427 30.293c24.491 20.565-25.899-9.088 0 0zM747.307-8.875c16.469 11.008-20.011 3.541 0 0zM194.944 346.624c22.059-4.949 88.149-54.357 49.152-3.413-19.968 5.888-7.979 54.741-28.373 46.080 13.653-22.827 11.264-32.555-17.451-18.176-36.096 17.621-20.267-8.704-13.227-15.957-9.6-2.219 12.715-8.363 9.899-8.533zM94.421 425.984c3.925 16.341-36.395 89.899-19.029 36.864 6.229-11.093 5.589-32.171 19.029-36.864zM278.912 312.235c-11.349 9.515-0.555 1.365 0 0zM306.901 305.749c0 17.28-30.933 6.997 0 0zM549.333 152.875c-4.608 11.861-18.261 0.256 0 0zM560.981 144.384c-1.707 6.613-6.699-1.28 0 0zM657.109 83.84c9.216 6.827-11.52 0.853 0 0zM144.64 413.184c26.453 10.24-28.331 7.296 0 0zM528 171.648c-0.299 17.109-16.853-4.267 0 0zM134.187 437.504c16.981 5.76-15.701 3.797 0 0zM183.467 413.611c-0.299 5.675-5.205-2.133 0 0zM784.64 44.971c21.888 4.437 71.637-11.093 79.659 5.803-26.496 0.64-91.733 18.688-94.805-4.309l5.803-0.939zM199.168 409.685c0.384 17.365-13.525 0.64 0 0zM69.547 499.627c-5.888 33.067-22.4 5.035 0 0zM100.437 491.861c0.384 10.624-28.288 9.557 0 0zM118.101 483.2c-5.12 4.139-4.011-5.205 0 0zM229.248 411.947c5.205 4.779-12.373 3.541 0 0zM106.368 502.741c-2.987 24.96-35.84 3.755 0 0zM42.965 543.872c-0.853 11.52-6.144-4.352 0 0zM52.395 550.997c-1.536 13.653-8.107-1.707 0 0zM104.448 519.893c22.059 8.661-40.107 17.92-4.48 1.664zM801.365 89.429c14.080 12.928-17.92 4.011 0 0zM885.589 45.781c5.632 16.725-14.251-2.176 0 0zM109.781 547.157c2.347 16.171-17.451-3.2 0 0zM35.712 596.779c-3.968 22.827-3.413 62.891 34.645 49.323-50.816-10.069 35.157-63.147 24.32-21.248 21.333-1.024 41.813 12.629 30.549-8.107 42.112 4.651 71.296 41.131 111.957 36.053 31.659 4.181 66.304 7.339 100.437 20.096 28.075 2.048 55.083 32.256 39.68 50.133-38.229 3.243-78.293-1.536-120.619-9.941-46.848-9.728-89.429-28.245-136.747-36.224-46.080-6.187 9.259-17.067-3.925-19.456-24.064-8.363 28.672-13.995-3.115-22.784-19.627 3.755-40.107 10.496-31.701 31.147-44.16-5.675-82.987-24.021-48.085-68.949zM142.123 650.965c10.368 38.144 55.467-31.36 16.981-5.035-4.608 3.413-12.16 6.229-16.981 5.035zM144.128 669.483c14.933 11.093 7.936-6.229 0 0zM163.115 669.141c1.365 17.536 43.435-9.301 6.955-6.315zM189.056 679.595c9.472 11.093 2.731-9.856 0 0zM195.712 684.032c15.787 18.944 89.387 12.075 35.499 1.835-14.421 10.88-25.515-6.4-35.499-1.835zM291.755 698.837c-2.389 51.797 47.701-18.432 0 0zM319.019 699.008c9.941 26.112 38.656 10.453 4.608 5.248 0.725-2.773-1.024-13.483-4.608-5.248zM99.072 560.555c29.739 18.219-31.616 15.787 0 0zM121.045 554.411c10.453 11.093-22.656 4.523 0 0zM56.192 600.491c17.024 13.013-20.096 4.949 0 0zM935.253 50.517c0.512 15.147-12.971-6.827 0 0zM845.952 111.488c2.56 17.451-11.52-1.536 0 0zM959.872 44.629c23.765 0 72.021 7.381 20.267 7.381-8.107-1.28-47.317-1.024-20.267-7.381zM140.373 565.163c19.243 1.28 30.123 21.205-3.712 20.053-52.48 5.419 46.251-17.92-6.741-11.264-7.125-4.693 10.069-10.112 10.453-8.789zM157.355 556.544c-2.048 12.373-5.973-6.571 0 0zM177.408 610.176c8.405 10.368-11.52 2.773 0 0zM113.408 717.184c34.389 11.691 81.365 24.789 97.579-5.76-16.512 19.883-6.656 39.424 8.96 10.368 22.016-29.397 33.067 13.355 18.688 23.253 16.341-20.309 34.944-29.909 10.965-1.28 26.027 31.317-52.181-4.139-69.973-3.755-8.533-3.84-88.363-20.352-66.219-22.827zM133.547 755.712c19.627 14.805 67.755-8.789 36.864 14.72-2.987 2.645-67.669-17.835-36.864-14.72zM204.971 752.768c22.955-0.555-9.856 30.805 17.451 16.597-4.48 14.677-31.829 17.408-45.184 23.253-7.552-13.397 15.36-40.021 27.733-39.851zM146.091 817.621c7.936 10.752-13.909-5.461 0 0zM175.275 810.624c36.949 4.907-9.387 15.915-7.424 0.427zM120.789 853.291c-26.027 33.963 48.896-5.717 22.485 29.867-22.272 17.707-43.648-19.968-22.485-29.867zM454.656 673.451c11.947 21.163-49.28 28.501-8.021 7.467 3.797-1.28 2.944-8.96 8.021-7.467z" />
<glyph unicode="&#xe925;" glyph-name="sass" d="M512 960c282.752 0 512-229.248 512-512s-229.248-512-512-512-512 229.248-512 512 229.248 512 512 512zM410.24 277.419c7.467-27.52 6.656-53.248-1.024-76.459l-2.773-7.68c-1.024-2.603-2.219-5.12-3.328-7.509-5.973-12.373-13.909-23.893-23.68-34.56-29.781-32.384-71.339-44.672-89.173-34.347-19.2 11.179-9.643 56.96 24.917 93.44 37.163 39.168 90.453 64.384 90.453 64.384v0.128zM833.109 740.821c-23.125 91.008-173.952 120.917-316.672 70.187-84.864-30.165-176.811-77.568-242.901-139.392-78.635-73.429-91.136-137.429-85.973-164.181 18.219-94.336 147.499-156.032 200.661-201.813v-0.256c-15.659-7.68-130.389-65.237-157.269-124.8-28.8-62.72 4.48-107.563 26.24-113.28 67.2-18.603 136.32 15.36 173.44 70.357 35.84 53.803 32.683 122.923 17.237 156.843 21.163 5.76 46.080 8.32 78.080 4.437 89.643-10.24 107.563-66.56 103.68-89.6-3.84-22.997-22.315-36.437-28.757-40.277-6.4-3.883-8.32-5.12-7.723-7.723 0.64-3.84 3.883-3.84 8.96-3.2 7.040 1.28 46.763 19.2 48.683 62.763 1.92 55.040-50.603 116.437-144 115.2-38.4-0.683-62.763-3.883-80-10.923-1.28 1.92-2.603 3.2-4.48 4.48-57.6 62.080-164.48 105.6-160 188.16 1.28 30.080 12.16 109.397 204.8 205.397 158.080 78.763 284.203 56.96 305.963 8.96 31.275-68.437-67.243-195.84-231.723-214.357-62.72-7.040-95.36 17.237-103.723 26.24-8.917 9.6-10.197 10.24-13.397 8.277-5.12-2.56-1.92-10.88 0-16 5.12-12.8 24.96-35.2 59.563-46.72 30.037-9.6 103.68-15.317 192 19.2 99.157 38.357 176.597 145.28 154.197 234.88z" />
<glyph unicode="&#xe926;" glyph-name="tailwindcss" d="M512.043 755.2c-136.533 0-221.867-68.267-256-204.8 51.2 68.267 110.933 93.867 179.2 76.8 38.955-9.728 66.773-37.973 97.621-69.291 50.219-50.944 108.288-109.909 235.179-109.909 136.533 0 221.867 68.267 256 204.8-51.2-68.267-110.933-93.867-179.2-76.8-38.955 9.728-66.773 37.973-97.621 69.291-50.176 50.944-108.245 109.909-235.179 109.909zM256.043 448c-136.533 0-221.867-68.267-256-204.8 51.2 68.267 110.933 93.867 179.2 76.8 38.955-9.728 66.773-37.973 97.621-69.291 50.219-50.944 108.288-109.909 235.179-109.909 136.533 0 221.867 68.267 256 204.8-51.2-68.267-110.933-93.867-179.2-76.8-38.955 9.728-66.773 37.973-97.621 69.291-50.176 50.944-108.245 109.909-235.179 109.909z" />
<glyph unicode="&#xe927;" glyph-name="vue-dot-js" d="M1024 891.307h-424.107l-87.893-151.467-87.893 151.467h-424.107l512-886.613zM512 359.253l-291.84 505.6h189.013l102.827-178.347 102.827 178.347h189.013z" />
<glyph unicode="&#xe928;" glyph-name="sun" d="M528.93 256v0c-97.202 0-176 78.798-176 176s78.798 176 176 176c97.202 0 176-78.798 176-176s-78.798-176-176-176zM528.93 288c79.529 0 144 64.471 144 144s-64.471 144-144 144c-79.529 0-144-64.471-144-144s64.471-144 144-144v0zM528.93 736c-8.837 0-16-6.904-16-15.852v-64.295c0-8.755 7.422-15.852 16-15.852 8.837 0 16 6.904 16 15.852v64.295c0 8.755-7.422 15.852-16 15.852v0zM744.548 646.688c-6.248 6.248-16.196 6.432-22.523 0.104l-45.464-45.464c-6.191-6.191-5.961-16.457 0.104-22.523 6.248-6.248 16.196-6.432 22.523-0.104l45.464 45.464c6.191 6.191 5.961 16.457-0.104 22.523v0zM833.859 431.070c0 8.837-6.904 16-15.852 16h-64.295c-8.755 0-15.852-7.422-15.852-16 0-8.837 6.904-16 15.852-16h64.295c8.755 0 15.852 7.422 15.852 16v0zM744.548 215.452c6.248 6.248 6.432 16.196 0.104 22.523l-45.464 45.464c-6.191 6.191-16.457 5.961-22.523-0.104-6.248-6.248-6.432-16.196-0.104-22.523l45.464-45.464c6.191-6.191 16.457-5.961 22.523 0.104v0zM528.93 126.141c8.837 0 16 6.904 16 15.852v64.295c0 8.755-7.422 15.852-16 15.852-8.837 0-16-6.904-16-15.852v-64.295c0-8.755 7.422-15.852 16-15.852v0zM313.312 215.452c6.248-6.248 16.196-6.432 22.523-0.104l45.464 45.464c6.191 6.191 5.961 16.457-0.104 22.523-6.248 6.248-16.196 6.432-22.523 0.104l-45.464-45.464c-6.191-6.191-5.961-16.457 0.104-22.523v0zM224 431.070c0-8.837 6.904-16 15.852-16h64.295c8.755 0 15.852 7.422 15.852 16 0 8.837-6.904 16-15.852 16h-64.295c-8.755 0-15.852-7.422-15.852-16v0zM313.312 646.688c-6.248-6.248-6.432-16.196-0.104-22.523l45.464-45.464c6.191-6.191 16.457-5.961 22.523 0.104 6.248 6.248 6.432 16.196 0.104 22.523l-45.464 45.464c-6.191 6.191-16.457 5.961-22.523-0.104v0z" />
<glyph unicode="&#xe929;" glyph-name="moon-stars" d="M582.857 583.619l-38.857-103.619-38.857 103.619-73.143 24.381 73.143 24.381 38.857 103.619 38.857-103.619 73.143-24.381-73.143-24.381zM710.857 376.381l-38.857 103.619-38.857-103.619-73.143-24.381 73.143-24.381 38.857-103.619 38.857 103.619 73.143 24.381-73.143 24.381zM474.768 245.405v0c2.807 11.244 4.533 22.917 5.060 34.901-14.965-5.268-31.061-8.133-47.827-8.133-79.529 0-144 64.471-144 144 0 16.766 2.865 32.863 8.133 47.827-11.984-0.527-23.656-2.253-34.901-5.060-76.535-19.106-133.232-88.316-133.232-170.768 0-97.202 78.798-176 176-176 82.452 0 151.662 56.698 170.768 133.232zM160 288.173c0 62.763 40.153 116.148 96.173 135.867-0.115-2.608-0.173-5.231-0.173-7.867 0-97.202 78.798-176 176-176 2.636 0 5.259 0.058 7.867 0.173-19.719-56.019-73.104-96.173-135.867-96.173-79.529 0-144 64.471-144 144v0zM859.755 562.286l52.245-18.286-52.245-18.286-27.755-77.714-27.755 77.714-52.245 18.286 52.245 18.286 27.755 77.714 27.755-77.714z" />
<glyph unicode="&#xe92a;" glyph-name="wb_sunny" d="M152 146.667l76 78 60-60-76-78zM470-19.333v126h84v-126h-84zM512 704.667q106 0 181-75t75-181-75-181-181-75-181 75-75 181 75 181 181 75zM854 490.667h128v-86h-128v86zM736 164.667l60 58 76-76-60-60zM872 748.667l-76-76-60 60 76 76zM554 914.667v-126h-84v126h84zM170 490.667v-86h-128v86h128zM288 732.667l-60-60-76 76 60 60z" />
<glyph unicode="&#xe92b;" glyph-name="data" d="M512 960c-215.808 0-448-65.056-448-208v-608c0-142.88 232.192-208 448-208 215.776 0 448 65.12 448 208v608c0 142.944-232.256 208-448 208zM896 144c0-79.488-171.936-144-384-144-212.096 0-384 64.512-384 144v119.552c66.112-68.128 225.6-103.552 384-103.552s317.888 35.424 384 103.552v-119.552zM896 336h-0.128c0-0.32 0.128-0.672 0.128-0.992 0-79.008-171.936-143.008-384-143.008s-384 64-384 143.008c0 0.32 0.128 0.672 0.128 0.992h-0.128v119.552c66.112-68.128 225.6-103.552 384-103.552s317.888 35.424 384 103.552v-119.552zM896 528h-0.128c0-0.32 0.128-0.672 0.128-0.992 0-79.008-171.936-143.008-384-143.008s-384 64-384 143.008c0 0.32 0.128 0.672 0.128 0.992h-0.128v109.952c83.872-63.904 237.6-93.952 384-93.952s300.128 30.048 384 93.952v-109.952zM512 608c-212.096 0-384 64.512-384 144 0 79.552 171.904 144 384 144 212.064 0 384-64.448 384-144 0-79.488-171.936-144-384-144zM768 128c0 17.673 14.327 32 32 32s32-14.327 32-32c0-17.673-14.327-32-32-32s-32 14.327-32 32zM768 320c0 17.673 14.327 32 32 32s32-14.327 32-32c0-17.673-14.327-32-32-32s-32 14.327-32 32zM768 512c0 17.673 14.327 32 32 32s32-14.327 32-32c0-17.673-14.327-32-32-32s-32 14.327-32 32z" />
<glyph unicode="&#xe92c;" glyph-name="view_agenda" d="M854 810.667q18 0 30-12t12-30v-256q0-18-12-31t-30-13h-726q-18 0-30 13t-12 31v256q0 18 12 30t30 12h726zM854 384.667q18 0 30-13t12-31v-256q0-18-12-30t-30-12h-726q-18 0-30 12t-12 30v256q0 18 12 31t30 13h726z" />
<glyph unicode="&#xe92d;" glyph-name="view_array" d="M342 170.667v554h384v-554h-384zM768 724.667h128v-554h-128v554zM170 170.667v554h128v-554h-128z" />
<glyph unicode="&#xe92e;" glyph-name="view_carousel" d="M768 682.667h170v-470h-170v470zM86 212.667v470h170v-470h-170zM298 128.667v640h428v-640h-428z" />
<glyph unicode="&#xe92f;" glyph-name="view_column" d="M682 724.667h214v-554h-214v554zM170 170.667v554h214v-554h-214zM426 170.667v554h214v-554h-214z" />
<glyph unicode="&#xe930;" glyph-name="view_day" d="M86 810.667h810v-128h-810v128zM854 596.667q18 0 30-12t12-30v-256q0-18-12-30t-30-12h-726q-18 0-30 12t-12 30v256q0 18 12 30t30 12h726zM86 42.667v128h810v-128h-810z" />
<glyph unicode="&#xe931;" glyph-name="view_headline" d="M170 724.667h684v-84h-684v84zM170 468.667v86h684v-86h-684zM170 128.667v84h684v-84h-684zM170 298.667v86h684v-86h-684z" />
<glyph unicode="&#xe932;" glyph-name="view_list" d="M384 724.667h512v-170h-512v170zM384 128.667v170h512v-170h-512zM384 340.667v172h512v-172h-512zM170 554.667v170h172v-170h-172zM170 128.667v170h172v-170h-172zM170 340.667v172h172v-172h-172z" />
<glyph unicode="&#xe933;" glyph-name="view_module" d="M682 724.667h214v-256h-214v256zM426 468.667v256h214v-256h-214zM682 170.667v256h214v-256h-214zM426 170.667v256h214v-256h-214zM170 170.667v256h214v-256h-214zM170 468.667v256h214v-256h-214z" />
<glyph unicode="&#xe934;" glyph-name="view_quilt" d="M426 724.667h470v-256h-470v256zM682 170.667v256h214v-256h-214zM170 170.667v554h214v-554h-214zM426 170.667v256h214v-256h-214z" />
<glyph unicode="&#xe935;" glyph-name="view_stream" d="M170 724.667h726v-256h-726v256zM170 170.667v256h726v-256h-726z" />
<glyph unicode="&#xe936;" glyph-name="view_week" d="M554 724.667q18 0 31-12t13-30v-512q0-18-13-30t-31-12h-128q-18 0-30 12t-12 30v512q0 18 12 30t30 12h128zM854 724.667q18 0 30-12t12-30v-512q0-18-12-30t-30-12h-128q-18 0-31 12t-13 30v512q0 18 13 30t31 12h128zM256 724.667q18 0 30-12t12-30v-512q0-18-12-30t-30-12h-128q-18 0-30 12t-12 30v512q0 18 12 30t30 12h128z" />
<glyph unicode="&#xe937;" glyph-name="barcode" d="M0 832h128v-640h-128zM192 832h64v-640h-64zM320 832h64v-640h-64zM512 832h64v-640h-64zM768 832h64v-640h-64zM960 832h64v-640h-64zM640 832h32v-640h-32zM448 832h32v-640h-32zM864 832h32v-640h-32zM0 128h64v-64h-64zM192 128h64v-64h-64zM320 128h64v-64h-64zM640 128h64v-64h-64zM960 128h64v-64h-64zM768 128h128v-64h-128zM448 128h128v-64h-128z" />
<glyph unicode="&#xe938;" glyph-name="qrcode" d="M320 896h-256v-256h256v256zM384 960v0-384h-384v384h384zM128 832h128v-128h-128zM960 896h-256v-256h256v256zM1024 960v0-384h-384v384h384zM768 832h128v-128h-128zM320 256h-256v-256h256v256zM384 320v0-384h-384v384h384zM128 192h128v-128h-128zM448 960h64v-64h-64zM512 896h64v-64h-64zM448 832h64v-64h-64zM512 768h64v-64h-64zM448 704h64v-64h-64zM512 640h64v-64h-64zM448 576h64v-64h-64zM448 448h64v-64h-64zM512 384h64v-64h-64zM448 320h64v-64h-64zM512 256h64v-64h-64zM448 192h64v-64h-64zM512 128h64v-64h-64zM448 64h64v-64h-64zM512 0h64v-64h-64zM960 448h64v-64h-64zM64 448h64v-64h-64zM128 512h64v-64h-64zM0 512h64v-64h-64zM256 512h64v-64h-64zM320 448h64v-64h-64zM384 512h64v-64h-64zM576 448h64v-64h-64zM640 512h64v-64h-64zM704 448h64v-64h-64zM768 512h64v-64h-64zM832 448h64v-64h-64zM896 512h64v-64h-64zM960 320h64v-64h-64zM576 320h64v-64h-64zM640 384h64v-64h-64zM704 320h64v-64h-64zM832 320h64v-64h-64zM896 384h64v-64h-64zM960 192h64v-64h-64zM576 192h64v-64h-64zM640 256h64v-64h-64zM768 256h64v-64h-64zM832 192h64v-64h-64zM896 256h64v-64h-64zM960 64h64v-64h-64zM640 128h64v-64h-64zM704 64h64v-64h-64zM768 128h64v-64h-64zM832 64h64v-64h-64zM640 0h64v-64h-64zM768 0h64v-64h-64zM896 0h64v-64h-64z" />
<glyph unicode="&#xe939;" glyph-name="reset_tv" d="M896 512.667q34 0 60-26t26-60h-2v-214q0-34-25-59t-59-25h-214v-86h-340v86h-214q-34 0-60 25t-26 59v512q0 34 26 60t60 26h768q34 0 60-26t26-60v-128h-86v128h-768v-512h768v214h-342v-128l-170 170 170 172v-128h342z" />
<glyph unicode="&#xe93a;" glyph-name="shuffle_on" d="M632 366.667l-60-60 134-134-88-88h236v236l-88-88zM618 768.667l88-88-536-536 60-60 536 536 88-88v236h-236zM452 546.667l-222 222-60-60 222-222zM896 896.667q34 0 60-26t26-60v-768q0-34-26-60t-60-26h-768q-34 0-60 26t-26 60v768q0 34 26 60t60 26h768z" />
<glyph unicode="&#xe93b;" glyph-name="home, house" d="M1024 352l-192 192v288h-128v-160l-192 192-512-512v-32h128v-320h320v192h128v-192h320v320h128z" />
<glyph unicode="&#xe93c;" glyph-name="home1, house1" d="M1024 369.556l-512 397.426-512-397.428v162.038l512 397.426 512-397.428zM896 384v-384h-256v256h-256v-256h-256v384l384 288z" />
<glyph unicode="&#xe93d;" glyph-name="user-check" d="M960 352l-288-288-96 96-64-64 160-160 352 352zM448 192h320v115.128c-67.22 39.2-156.308 66.11-256 74.26v52.78c70.498 39.728 128 138.772 128 237.832 0 159.058 0 288-192 288s-192-128.942-192-288c0-99.060 57.502-198.104 128-237.832v-52.78c-217.102-17.748-384-124.42-384-253.388h448v64z" />
<glyph unicode="&#xe93e;" glyph-name="file_copy" d="M598 426.667h234l-234 234v-234zM640 724.667l256-256v-426q0-34-26-60t-60-26h-470q-34 0-59 26t-25 60v598q0 34 26 59t60 25h298zM682 896.667v-86h-512v-598h-84v598q0 34 25 60t59 26h512z" />
<glyph unicode="&#xe93f;" glyph-name="stats, statistics, decrease, down" d="M223.584 800h-31.584v-736h640v30.816l-607.872 1.6-0.544 703.584zM448 518.016l-160 160v-518.016h160v358.016zM480 540v-380h160v412l-64 64-96-96zM672 448v-288h160v288h-160zM579.808 724.128l167.744-168.288-46.944-44.48 131.296-1.408-0.608 126.752-56.672-55.008-194.752 197.6-119.84-121.184-138.144 138.048-28.064-29.152 163.936-165.376 122.048 122.496z" />
<glyph unicode="&#xe940;" glyph-name="stats1, statistics1, grow, increase, up" d="M191.936 800h-31.584v-736h640v30.816l-607.872 1.568-0.544 703.616zM256.352 160h160v348l-160-160v-188zM448.352 160h160v316l-64-64-96 96v-348zM640.352 160h160v485.984l-160-160v-325.984zM428.384 605.856l115.84-115.2 228.736 227.584 58.688-59.008-1.408 140.768-141.28-0.736 54.944-55.104-199.744-200.32-118.048 118.496-179.936-179.328 30.048-29.184 152.16 152.032z" />
<glyph unicode="&#xe941;" glyph-name="user-minus" d="M384 224c0 151.234 95.874 280.486 230.032 330.2 16.28 36.538 25.968 77.164 25.968 117.8 0 159.058 0 288-192 288s-192-128.942-192-288c0-99.060 57.502-198.104 128-237.832v-52.78c-217.102-17.748-384-124.42-384-253.388h397.306c-8.664 30.53-13.306 62.732-13.306 96zM736 512c-159.058 0-288-128.942-288-288s128.942-288 288-288c159.056 0 288 128.942 288 288s-128.942 288-288 288zM896 192h-320v64h320v-64z" />
<glyph unicode="&#xe942;" glyph-name="user-plus" d="M384 224c0 151.234 95.874 280.486 230.032 330.2 16.28 36.538 25.968 77.164 25.968 117.8 0 159.058 0 288-192 288s-192-128.942-192-288c0-99.060 57.502-198.104 128-237.832v-52.78c-217.102-17.748-384-124.42-384-253.388h397.306c-8.664 30.53-13.306 62.732-13.306 96zM736 512c-159.058 0-288-128.942-288-288s128.942-288 288-288c159.056 0 288 128.942 288 288s-128.942 288-288 288zM896 192h-128v-128h-64v128h-128v64h128v128h64v-128h128v-64z" />
<glyph unicode="&#xe943;" glyph-name="user" d="M576 253.388v52.78c70.498 39.728 128 138.772 128 237.832 0 159.058 0 288-192 288s-192-128.942-192-288c0-99.060 57.502-198.104 128-237.832v-52.78c-217.102-17.748-384-124.42-384-253.388h896c0 128.968-166.898 235.64-384 253.388z" />
<glyph unicode="&#xe944;" glyph-name="cabinet" d="M160-32v800l133.344 128h405.344l133.312-128v-800h-672zM192 0h608v736h-608v-736zM224 352h544v-320h-544v320zM416 224v-32h160v96h-32v-64h-96v64h-32v-64zM224 704h544v-320h-544v320zM416 544h160v96h-32v-64h-96v64h-32v-96z" />
<glyph unicode="&#xe945;" glyph-name="cabinet1" d="M160 0v768l133.344 128h405.344l133.312-128v-768h-672zM800 256v480h-608v-704h608v224zM768 512h-544v192h544v-192zM576 640h-160v-32h160v32zM768 288h-544v192h544v-192zM576 416h-160v-32h160v32zM768 64h-544v192h544v-192zM576 192h-160v-32h160v32z" />
<glyph unicode="&#xe946;" glyph-name="microsoftsqlserver" d="M201.557 853.12s-3.413-5.419-0.171-13.44c1.963-4.949 7.936-10.923 14.507-17.237 0 0 68.907-67.243 77.355-76.971 38.187-44.075 54.784-87.467 56.32-147.328 0.939-38.4-6.443-72.192-24.448-111.488-32.256-70.357-100.267-147.968-205.227-234.24l15.36 5.12c9.941 7.381 23.381 15.317 55.125 32.683 73.088 39.936 155.136 76.715 255.957 114.603 145.024 54.485 383.573 118.443 519.339 139.221l14.123 2.176-2.133 3.413c-12.459 19.285-20.907 31.189-31.147 43.819-29.739 36.821-65.792 66.859-109.952 91.563-60.672 34.005-139.392 60.416-238.933 80.213-13.332 3.17-45.079 8.766-76.999 13.84l-16.484 2.16c-107.722 15.607-164.653 25.17-221.398 35.268l53.974-7.961c-18.133 3.2-45.227 7.723-63.189 11.605-16.668 3.548-30.409 7.343-43.835 11.828l2.832-0.82c-11.435 4.48-27.52 8.832-30.976 21.973zM241.493 814.336c0.128 0.085 2.688-0.725 5.845-1.792 5.803-1.963 13.483-4.267 22.443-6.784 6.229-1.707 13.099-3.584 20.437-5.419 9.301-2.389 17.024-4.437 17.109-4.565 1.024-1.152 16.683-51.115 22.016-70.272 2.048-7.339 3.584-13.44 3.456-13.568-1.409 1.741-2.686 3.699-3.752 5.783l-0.088 0.19c-18.091 31.829-46.805 64.213-79.957 90.283-2.835 2.158-5.281 4.171-7.65 6.266l0.141-0.122zM317.867 793.259c0.768 0.043 4.224-0.512 8.32-1.451 26.411-5.803 73.6-14.933 103.893-20.053 5.077-0.853 9.216-1.707 9.216-2.005-1.191-1.072-2.573-1.962-4.085-2.609l-0.097-0.037c-5.077-2.56-25.685-14.891-32.555-19.499-17.195-11.52-32.683-23.851-43.947-35.029-2.717-2.785-5.456-5.456-8.26-8.058l-0.146-0.134c-0.128 0-0.939 2.645-1.749 5.845-8.343 29.688-17.792 54.893-29.062 79.080l1.328-3.176c-0.927 1.813-1.947 4.135-2.853 6.512l-0.176 0.528c0 0.043 0 0.085 0.171 0.085zM452.139 767.744c0.853-0.299 2.56-5.547 5.504-17.237 4.773-18.563 7.513-39.874 7.513-61.824 0-7.931-0.358-15.778-1.058-23.527l0.073 0.999-0.512-1.621-7.979 2.56c-16.555 5.291-43.52 13.227-66.645 19.627-10.082 2.572-18.052 5.056-25.863 7.874l1.97-0.621c0 0.939 19.157 20.096 27.392 27.392 15.744 13.909 58.112 46.848 59.605 46.379zM462.805 766.208c0.469 0.427 64.171-10.581 93.099-16.128 21.589-4.139 52.779-10.667 54.656-11.477 0.939-0.341-2.304-2.133-12.672-6.827-40.96-18.432-71.339-34.987-101.547-55.168-7.936-5.291-14.549-9.643-14.677-9.643-0.171 0-0.256 4.437-0.256 9.813 0 29.44-5.931 59.179-16.683 84.309-0.723 1.445-1.377 3.146-1.871 4.913l-0.049 0.207zM627.499 733.611c0.469-0.469-1.621-13.056-3.413-20.48-5.632-23.040-20.565-57.344-38.997-89.557-2.184-4.077-4.333-7.508-6.683-10.786l0.198 0.29c-3.62 1.547-6.689 3.188-9.597 5.059l0.253-0.153c-18.005 10.539-38.4 20.48-60.8 29.739-5.29 2.063-9.198 3.785-13.037 5.629l1.175-0.509c-1.024 0.939 48.768 33.92 75.179 49.749 21.12 12.672 55.125 31.616 55.723 31.019zM639.275 731.776c1.408 0 29.653-7.68 44.245-12.075 36.395-10.88 78.379-26.197 105.6-38.571l11.307-5.12-7.979-1.835c-66.603-15.36-123.733-32.981-178.688-55.296-4.565-1.877-8.533-3.413-8.832-3.413 0.864 3.019 1.954 5.638 3.301 8.095l-0.101-0.202c16.555 35.115 27.221 71.979 29.995 103.253 0.256 2.859 0.768 5.163 1.152 5.163zM358.528 667.264c0.427 0.427 21.931-4.608 33.664-7.893 17.621-4.949 55.125-17.493 55.125-18.475 0-0.171-4.139-3.797-9.173-8.021-20.267-16.939-39.851-34.688-63.275-57.301-4.126-4.134-8.408-8.105-12.839-11.907l-0.302-0.253c-0.299 0-0.427 0.981-0.256 2.133 3.541 26.069 2.773 59.52-2.133 93.568-0.454 2.382-0.761 5.174-0.851 8.020l-0.002 0.086zM811.221 666.837c0.299-0.341-9.984-16.427-16.384-25.6-9.387-13.397-22.912-30.976-53.803-69.845l-40.704-51.285c-4.336-5.619-8.095-10.243-11.952-14.781l0.475 0.573c-0.128 0-2.133 2.816-4.395 6.229-17.933 26.534-38.653 49.356-62.189 68.905l-0.531 0.429c-3.074 2.601-6.823 5.647-10.626 8.627l-0.894 0.675c-1.188 0.804-2.222 1.689-3.148 2.678l-0.009 0.010c0 0.427 26.325 11.691 46.421 19.883 28.027 12.005 67.339 26.353 107.345 39.151l11.183 3.089c18.859 5.76 38.912 11.52 39.211 11.264zM823.083 663.723c3.372-1.155 6.291-2.598 8.984-4.36l-0.152 0.093c39.333-22.756 73.315-48.532 103.739-77.963l-0.145 0.139c8.277-8.107 28.459-29.141 28.16-29.312l-15.488-1.237c-65.28-4.907-148.736-18.773-229.12-38.101-5.461-1.28-10.155-2.389-10.496-2.389-0.299 0 5.675 5.973 13.269 13.312 47.232 45.355 68.736 73.984 94.080 125.184 3.755 7.595 6.955 14.208 7.083 14.592h0.085zM477.995 628.309c2.176-0.427 22.315-9.813 37.504-17.408 13.867-6.955 34.901-18.176 35.968-19.157 0.128-0.128-7.253-3.968-16.469-8.576-29.141-14.592-54.101-28.331-80.128-44.245-7.467-4.565-13.653-8.277-13.867-8.277-0.64 0-0.427 0.555 3.755 8.149 13.494 24.621 24.347 53.146 31.076 83.228l0.412 2.191c0.597 2.645 1.28 4.267 1.749 4.139zM457.728 624.725c0.427-0.427-4.779-19.627-8.107-29.867-10.004-29.548-22.052-55.041-36.594-78.844l0.967 1.703-3.84-6.272-8.661 8.405c-8.241 8.394-17.748 15.506-28.221 21.034l-0.621 0.299c-2.873 1.31-5.338 2.763-7.632 4.437l0.122-0.085c0 1.28 26.453 25.301 46.848 42.581 14.635 12.373 45.397 36.992 45.739 36.608zM580.949 574.037l7.552-4.907c17.365-11.264 37.888-26.411 53.547-39.424 8.789-7.339 25.813-22.613 29.312-26.283l1.877-2.005-12.544-3.499c-80.512-21.879-143.73-42.631-205.672-65.985l15.805 5.227c-7.125-2.603-13.227-4.779-13.653-4.779-0.896 0-1.792-0.811 14.208 13.909 40.96 37.675 77.099 79.189 104.107 119.552zM548.565 565.931c0.384-0.384-20.992-30.293-33.664-47.189-15.189-20.181-42.24-53.973-60.843-75.947-5.174-6.293-10-11.808-14.981-17.177l0.218 0.238c-0.427-0.128-0.64 2.133-0.683 5.675 0 18.773-4.779 38.827-13.141 55.808-3.541 7.168-4.139 8.875-3.413 9.557 2.901 2.645 48.085 28.416 76.544 43.648 19.584 10.496 49.621 25.771 49.963 25.387zM352.725 517.931c13.203-6.395 24.582-13.762 34.929-22.33l-0.284 0.228c0.341-0.213-3.712-3.541-8.96-7.339-14.72-10.624-37.12-27.477-50.048-37.803-13.653-10.88-14.123-11.221-12.587-8.832 10.24 15.659 15.36 24.491 20.736 35.84 4.821 10.069 9.557 22.016 12.971 32.427 0.771 2.962 1.897 5.561 3.357 7.933l-0.071-0.125zM404.907 476.971c0.725 0.128 1.707-1.195 5.931-7.467 8.832-13.227 15.616-30.805 17.365-45.141l0.341-3.115-21.205-8.192c-37.973-14.763-73.003-29.312-96.683-40.107-6.613-3.072-18.261-8.619-25.899-12.459s-13.867-6.827-13.867-6.656c0 0.171 4.779 3.797 10.667 8.021 46.379 33.707 86.4 70.571 116.565 107.477 3.2 3.925 6.144 7.339 6.528 7.595 0.074 0.043 0.16 0.073 0.253 0.085h0.003zM380.843 470.997c0.64-0.597-17.109-20.651-29.056-32.853-29.867-30.507-59.563-54.4-96.256-77.696-4.608-2.944-8.789-5.547-9.387-5.888-0.981-0.597 0.341 0.939 16.469 18.517 10.155 11.051 17.92 20.224 26.795 31.701 5.803 7.552 6.912 8.619 15.445 14.763 22.912 16.555 75.392 52.096 75.989 51.499zM423.467 960c-3.413 0.427-58.496-19.413-93.867-33.749-47.915-19.499-85.163-38.144-108.117-54.272-8.533-5.973-19.285-16.768-20.821-20.907-0.568-1.53-0.896-3.297-0.896-5.141 0-0.038 0-0.075 0-0.113v0.006l20.821-19.627 49.408-15.787 117.717-21.077 134.528-23.125 1.365 11.52-1.195 0.213-17.707 2.816-3.627 6.315c-15.153 25.889-31.928 58.437-47.195 91.82l-3.024 7.38c-7.598 16.744-15.291 37.488-21.663 58.803l-0.951 3.704c-2.901 10.368-3.2 11.008-4.779 11.221zM420.864 952.064h0.213c0.128-0.128 0.725-4.48 1.365-9.6 2.645-21.675 7.509-42.667 15.104-65.28 5.717-17.067 5.803-16.085-1.024-14.165-15.787 4.395-86.699 16.555-137.984 23.68-7.128 0.891-12.321 1.686-17.478 2.586l2.246-0.324c-0.64 0.64 36.992 20.352 53.675 28.16 21.376 9.899 79.659 34.133 83.883 34.944zM271.445 882.603l6.016-2.048c32.939-11.179 115.456-26.965 161.067-30.72 5.12-0.427 9.472-0.896 9.6-1.024s-4.267-2.475-9.728-5.205c-21.973-11.008-46.208-24.448-62.976-34.944-4.907-3.072-9.387-5.547-10.027-5.504-3.602 0.493-6.070 0.897-8.523 1.344l1.27-0.192-6.144 0.981-15.573 15.147c-27.349 26.453-48.683 46.933-56.96 54.613zM265.344 877.739l21.803-27.221c12.032-14.933 24.064-29.824 26.709-33.024 2.688-3.2 4.736-5.888 4.608-5.973-0.597-0.469-31.573 5.547-48 9.344-14.104 2.998-25.59 6.117-36.837 9.768l2.575-0.723-8.533 2.731 0.043 2.091c0.128 10.453 13.312 25.899 35.669 41.643zM451.029 840.661c0.64-0.043 1.365-1.365 3.285-5.589 5.291-11.605 21.76-43.008 25.728-49.067 1.28-2.005 3.413-2.133-18.475 1.408-52.48 8.448-69.504 11.307-69.504 11.648 1.023 0.892 2.189 1.661 3.449 2.264l0.093 0.040c17.906 10.133 33.359 20.962 47.675 33.091l-0.443-0.366 7.467 6.272c0.256 0.213 0.512 0.341 0.725 0.299zM634.88 481.92l-205.141-66.901-178.347-78.763-49.92-13.227c-12.715-12.032-26.155-24.235-40.448-36.693-15.787-13.696-30.549-26.112-41.813-35.072-14.895-12.376-28.202-25.574-40.275-39.851l-0.387-0.469c-14.165-17.664-25.259-36.437-30.037-50.901-8.533-26.027-4.395-52.395 12.16-76.715 21.12-31.061 63.147-62.635 112-84.139 24.96-10.923 66.987-25.088 98.56-33.024 52.608-13.312 154.197-27.733 210.176-29.867 11.349-0.427 26.453-0.427 27.179 0.085 1.195 0.811 9.941 17.28 20.053 37.973 34.389 70.229 59.264 136.107 72.661 192.341 8.107 34.091 14.421 79.488 18.517 133.333 1.152 15.104 1.579 65.408 0.683 82.517-1.191 26.719-3.983 51.764-8.319 76.276l0.511-3.487c-0.377 1.398-0.594 3.002-0.594 4.658 0 0.613 0.030 1.22 0.088 1.818l-0.006-0.076c0.597 0.427 2.517 1.067 27.733 8.405zM587.947 454.4c1.92 0 6.827-47.531 8.149-77.653 0.256-6.443 0.213-10.539-0.171-10.539-1.195 0-26.24 14.72-44.032 25.856-21.372 13.427-37.534 24.286-53.417 35.513l3.839-2.575c-1.493 1.195-1.323 1.237 11.349 5.589 21.547 7.424 72.704 23.808 74.325 23.808zM483.499 420.139c1.28 0 4.907-2.005 13.44-7.339 32-20.053 75.349-44.16 93.867-52.267 5.803-2.56 6.443-1.536-6.827-10.539-28.245-19.2-63.403-38.059-106.539-57.259-2.602-1.308-7.255-3.346-11.964-5.276l-2.159-0.783c0.352 3.177 0.997 6.068 1.921 8.831l-0.086-0.298c10.453 38.613 16.341 77.653 16.512 108.971 0.085 15.445 0.085 15.531 1.579 15.915h0.256zM461.995 411.904c0.896-0.939 0.256-35.584-0.853-45.056-3.636-29.309-9.892-55.811-18.666-81.137l0.832 2.759c-0.597-0.725-21.803 19.968-28.843 28.16-10.717 12.106-20.199 25.727-27.994 40.381l-0.55 1.134c-3.499 6.912-9.131 20.651-8.619 21.035 2.389 1.707 84.096 33.28 84.693 32.725zM360.661 371.968c0.171 0 0.341-0.043 0.427-0.171 0.846-1.561 1.653-3.408 2.311-5.325l0.079-0.264c4.949-13.44 16.043-33.365 25.685-46.080 12.897-16.97 27.156-31.811 42.944-44.867l0.448-0.36c0.981-0.853 1.28-0.683-23.979-10.24-17.932-7.573-50.405-19.169-83.241-29.967l-14.636-4.167c-13.952-4.523-25.771-8.32-26.24-8.533-1.408-0.469-0.981 0.384 3.115 6.741 18.219 28.416 45.781 84.053 61.227 123.392 2.645 6.827 5.205 13.653 5.675 15.189 0.64 2.219 1.323 2.987 3.413 3.925 0.804 0.431 1.755 0.696 2.764 0.725h0.009zM329.6 359.168c0.427-0.384-7.424-16.981-15.189-32.043-14.976-29.269-31.531-58.069-53.461-93.227l-7.765-12.288c-0.768-1.152-1.109-0.768-3.499 4.011-5.211 10.369-9.35 22.402-11.803 35.036l-0.144 0.889c-0.926 6.15-1.455 13.247-1.455 20.468 0 9.099 0.84 18.001 2.447 26.634l-0.138-0.894c2.005 9.685 1.92 9.472 6.485 11.776 19.712 10.112 83.883 40.192 84.523 39.637zM597.035 348.288v-6.571c-0.481-45.447-4.419-89.593-11.565-132.655l0.685 4.996c-30.979 9.053-57.836 20.407-83.020 34.405l2.039-1.040c-15.104 8.277-36.907 21.632-36.267 22.272 0.128 0.171 6.571 3.541 14.251 7.552 30.464 15.787 59.52 32.853 84.821 49.749 9.472 6.315 23.68 16.597 26.837 19.371zM212.523 302.507c0.64 0 0.469-1.195-0.512-6.869-0.76-4.635-1.383-10.358-1.726-16.157l-0.023-0.483c-1.28-22.699 2.432-39.424 13.653-62.293 3.157-6.4 5.632-11.691 5.504-11.776-1.152-0.981-103.68-30.976-135.936-39.808l-18.56-5.12c-1.152-0.341-1.237-0.085-0.853 2.56 3.541 22.741 20.907 52.565 45.141 77.653 16.128 16.64 29.013 26.539 50.987 39.040 7.428 4.603 21.274 12.33 35.272 19.811l7.054 3.442zM454.4 259.2c0.085 0.085 3.883-1.92 8.405-4.565 33.152-19.157 79.36-37.12 118.741-46.123l3.584-0.853-4.907-2.688c-20.565-11.435-88.363-39.637-157.611-65.579-27.39-9.531-34.629-12.33-41.855-15.157l19.967 6.88c-1.011-0.508-2.183-0.908-3.416-1.139l-0.083-0.013c0 0.171 2.859 5.632 6.357 12.203 19.456 36.352 38.827 80.512 48.811 111.147 0.981 3.115 1.877 5.76 2.005 5.888zM429.739 251.093c-0.869-2.879-1.782-5.27-2.84-7.581l0.152 0.37c-18.382-43.245-36.391-78.846-56.375-113.155l2.572 4.782c-4.403-8.111-7.968-14.148-11.69-20.076l0.938 1.602c-0.213 0-4.864 2.816-10.411 6.187-32.853 20.139-61.952 44.885-81.067 68.992l-2.731 3.413 14.165 3.883c53.686 14.456 98.947 30.521 142.597 49.588l-6.49-2.527c6.059 2.56 11.093 4.651 11.179 4.523zM582.912 197.632c0.043 0 0.085-0.043 0.085-0.128 0-3.413-7.808-35.328-14.336-58.453-5.461-19.328-10.069-34.475-18.56-61.312-2.902-9.822-5.343-16.969-7.997-24.012l0.829 2.508c-48.421 8.405-91.406 20.861-132.291 37.419l4.291-1.536c-11.467 4.479-20.446 8.538-29.208 12.965l1.944-0.891c-0.256 0.299 9.088 4.693 20.736 9.813 70.613 30.763 143.744 65.835 168.747 80.896 1.646 1.18 3.565 2.115 5.63 2.699l0.13 0.031zM229.333 185.557c0.384-0.384-19.371-28.629-46.933-67.243l-25.045-35.115c-4.139-5.931-10.453-15.275-14.037-20.821l-6.528-10.069-6.912 5.845c-8.149 6.827-22.4 21.376-28.885 29.44-13.312 16.597-22.315 34.048-25.899 50.091-1.621 7.424-1.707 11.179-0.128 11.648-24.019-3.981 3.724 2.727 31.526 9.28l50.991 10.134 55.467 13.013c8.917 2.133 16.299 3.84 16.384 3.797zM249.173 177.963l4.992-5.589c20.651-23.368 44.666-43.143 71.417-58.738l1.372-0.739c4.907-2.816 8.619-5.291 8.32-5.461 22.233 4.412-39.020-17.741-100.501-39.408l-84.245-25.872c-1.2 0.718-2.202 1.394-3.168 2.116l-2.763 1.98 4.48 6.485c14.507 21.035 32.768 44.16 72.747 92.245zM372.907 89.515c0.128 0.128 7.040-2.304 15.445-5.461 20.181-7.552 36.011-12.459 57.472-17.835 26.325-6.613 64.427-13.227 86.955-15.104 3.413-0.256 5.205-0.683 4.693-1.024-1.067-0.683-23.893-8.277-40.661-13.568 12.406 0.498-53.6-19.407-119.863-38.707l-77.939-19.448c-1.493-0.299-6.699 1.067-6.699 1.707 0 0.384 3.712 5.077 8.235 10.496 20.945 24.915 41.654 52.513 60.825 81.226l2.151 3.424c8.722 13.781 11.817 18.44 14.928 23.088l-5.541-8.795zM345.515 88.747c0.213-0.213-10.795-17.835-30.123-48.299-8.192-12.843-17.451-27.52-20.608-32.512-3.2-5.035-7.851-12.715-10.325-17.067l-4.565-7.893-2.304 0.597c-5.547 1.493-44.757 15.36-55.083 19.456-12.843 5.12-26.24 11.264-36.096 16.597-12.331 6.656-27.947 16.555-26.752 16.939l47.147 12.885c67.925 18.517 105.515 29.141 130.133 36.864 4.651 1.408 8.491 2.517 8.533 2.432zM538.496 43.477h0.256c0.64-1.621-24.533-71.253-33.707-93.355-2.091-4.949-2.816-6.187-3.925-6.101-32.887 3.997-53.763 7-74.55 10.272l13.409-1.739c-38.656 5.888-103.381 17.195-119.723 20.907l-3.797 0.853 23.168 5.205c49.664 11.179 73.515 17.195 97.707 24.619 36.152 11.189 66.371 23.12 95.49 36.987l-4.268-1.83c4.821 2.219 8.96 3.968 9.941 4.181z" />
<glyph unicode="&#xe947;" glyph-name="mysql" d="M699.947 725.291c-4.907 0-8.235-0.597-11.691-1.408v-0.555h0.597c2.304-4.437 6.229-7.68 9.131-11.648 2.304-4.565 4.267-9.131 6.571-13.653l0.597 0.64c4.011 2.816 5.973 7.339 5.973 14.208-1.707 2.005-1.963 4.011-3.413 5.973-1.707 2.859-5.376 4.267-7.68 6.528zM246.187 162.347h-39.552c-1.235 68.031-5.388 133.324-12.364 197.771l0.844-9.611h-0.341l-60.16-188.16h-30.080l-59.733 188.16h-0.427c-4.343-54.352-7.347-119.86-8.294-185.865l-0.026-2.295h-36.053c2.347 83.883 8.192 162.56 17.493 235.947h49.067l56.96-173.397h0.341l57.472 173.397h46.72c10.325-85.973 16.384-164.693 18.261-235.947zM417.579 336.427c-16.128-87.253-37.376-150.741-63.659-190.293-20.565-30.549-43.093-45.781-67.541-45.781-6.528 0-14.507 1.963-24.149 5.888v21.077c4.693-0.725 10.24-1.109 16.469-1.109 11.435 0 20.608 3.2 27.605 9.472 8.405 7.68 12.587 16.299 12.587 25.813 0 6.613-3.285 20.053-9.813 40.277l-43.264 134.656h38.827l31.019-100.693c6.997-22.869 9.941-38.827 8.747-47.915 17.067 45.397 28.928 95.019 35.627 148.608zM943.445 162.347h-112.213v235.947h37.76v-206.933h74.453zM801.792 156.587l-43.349 21.333c3.84 3.243 7.552 6.741 10.88 10.667 18.475 21.589 27.648 53.675 27.648 96.128 0 78.080-30.635 117.163-91.947 117.163-30.037 0-53.504-9.899-70.4-29.739-18.347-21.675-27.563-53.589-27.563-95.787 0-41.472 8.107-71.936 24.491-91.307 14.933-17.493 37.419-26.24 67.541-26.24 11.264 0 21.589 1.408 30.933 4.181l56.533-32.939 15.36 26.539zM661.333 209.579c-9.6 15.36-14.379 40.107-14.379 74.069 0 59.435 18.091 89.173 54.187 89.173 18.901 0 32.853-7.125 41.685-21.333 9.557-15.445 14.336-39.936 14.336-73.515 0-59.904-18.091-89.941-54.187-89.941-18.987 0-32.853 7.125-41.728 21.333zM590.592 227.712c0-20.053-7.339-36.523-22.016-49.323s-34.261-19.2-59.051-19.2c-23.168 0-45.397 7.339-67.115 21.973l10.112 20.309c18.688-9.387 35.541-13.995 50.773-13.995 14.165 0 25.301 3.115 33.408 9.387 7.812 5.933 12.805 15.228 12.805 25.689 0 0.194-0.002 0.387-0.005 0.58v-0.029c0 14.080-9.813 26.027-27.648 36.053-16.555 9.088-49.621 28.032-49.621 28.032-18.005 13.099-26.965 27.136-26.965 50.219 0 19.2 6.699 34.56 20.053 46.293 13.44 11.861 30.72 17.707 52.053 17.707 21.845 0 41.813-5.803 59.733-17.493l-9.088-20.309c-13.354 6.019-28.931 9.612-45.324 9.813l-0.074 0.001c-12.075 0-21.419-2.901-27.904-8.789-6.447-5.368-10.534-13.381-10.581-22.349v-0.008c0-13.995 9.984-26.027 28.416-36.267 16.768-9.173 50.645-28.587 50.645-28.587 18.475-13.013 27.648-26.88 27.648-49.835zM990.891 477.397c-22.827 0.597-40.533-1.707-55.339-8.021-4.267-1.707-11.093-1.707-11.691-7.125 2.347-2.261 2.688-5.973 4.693-9.131 3.413-5.717 9.301-13.355 14.763-17.365 5.973-4.693 11.947-9.216 18.219-13.227 11.093-6.827 23.68-10.88 34.56-17.749 6.187-4.011 12.501-9.088 18.773-13.355 3.115-2.133 5.12-5.973 9.131-7.339v0.853c-1.963 2.56-2.56 6.272-4.48 9.131-2.859 2.859-5.717 5.419-8.533 8.235-8.47 11.090-18.249 20.598-29.246 28.521l-0.407 0.279c-9.131 6.229-29.099 14.933-32.853 25.387l-0.555 0.597c6.229 0.555 13.653 2.816 19.627 4.523 9.685 2.56 18.56 2.005 28.587 4.523 4.523 1.152 9.088 2.56 13.653 4.011v2.56c-5.12 5.12-8.96 12.075-14.251 16.853-13.981 12.275-29.36 23.842-45.582 34.206l-1.522 0.909c-8.96 5.717-20.309 9.387-29.739 14.251-3.413 1.707-9.131 2.56-11.093 5.419-5.12 6.229-8.107 14.507-11.733 21.931-6.393 11.824-14.212 28.133-21.45 44.752l-1.889 4.869c-5.12 11.179-8.235 22.315-14.507 32.555-29.44 48.512-61.312 77.909-110.336 106.667-10.539 5.973-23.168 8.533-36.523 11.691-7.125 0.341-14.251 0.853-21.333 1.152-4.693 2.005-9.216 7.424-13.227 10.027-16.213 10.24-58.197 32.427-70.144 3.072-7.68-18.517 11.392-36.779 18.005-46.165 4.907-6.528 11.093-13.995 14.507-21.333 2.005-4.949 2.56-10.027 4.565-15.189 4.523-12.544 8.832-26.539 14.805-38.272 3.115-5.973 6.528-12.245 10.539-17.621 2.304-3.115 6.229-4.565 7.125-9.685-4.011-5.803-4.267-14.251-6.571-21.333-10.24-32.299-6.229-72.235 8.277-96 4.565-7.083 15.445-22.784 29.995-16.768 12.8 5.12 9.984 21.333 13.653 35.627 0.853 3.413 0.299 5.675 2.048 7.979v-0.64c4.011-8.021 8.021-15.659 11.691-23.68 8.789-13.995 24.149-28.501 36.992-38.187 6.827-5.12 12.245-13.995 20.779-17.152v0.853h-0.64c-1.835 2.475-4.267 3.669-6.571 5.675-5.309 5.201-10.205 10.772-14.663 16.692l-0.27 0.375c-11.115 15.010-21.701 32.023-30.891 49.872l-0.981 2.096c-4.693 8.96-8.619 18.603-12.373 27.435-1.707 3.413-1.707 8.533-4.565 10.24-4.267-6.229-10.539-11.648-13.653-19.328-5.419-12.288-5.973-27.392-8.021-43.093-1.152-0.299-0.597 0-1.152-0.597-9.131 2.219-12.245 11.691-15.659 19.627-8.533 20.267-9.941 52.821-2.56 76.16 2.005 5.973 10.539 24.832 7.125 30.549-1.792 5.419-7.424 8.533-10.539 12.928-3.728 5.253-7.15 11.237-9.972 17.548l-0.268 0.671c-6.827 15.957-10.24 33.621-17.664 49.579-3.413 7.381-9.387 15.104-14.251 21.888-5.419 7.68-11.392 13.099-15.701 22.187-1.408 3.115-3.413 8.277-1.152 11.691 0.597 2.304 1.792 3.2 4.011 3.84 3.755 3.072 14.293-0.939 18.005-2.645 10.539-4.267 19.413-8.277 28.245-14.251 4.011-2.816 8.32-8.235 13.44-9.643h5.973c9.131-2.005 19.413-0.597 27.947-3.115 15.147-4.864 28.8-11.947 41.045-19.627 37.694-24.332 67.883-57.268 88.293-96.142l0.667-1.394c3.413-6.571 4.907-12.587 8.021-19.413 5.973-14.080 13.355-28.288 19.413-41.899 5.973-13.44 11.733-27.136 20.309-38.272 4.267-5.973 21.419-9.088 29.099-12.203 5.675-2.56 14.507-4.907 19.627-8.021 9.813-5.973 19.371-12.8 28.587-19.371 4.693-3.243 18.901-10.368 19.755-16.128z" />
<glyph unicode="&#xe948;" glyph-name="github" d="M512 947.328c-282.88 0-512-229.248-512-512 0-226.261 146.688-418.133 350.080-485.76 25.6-4.821 34.987 11.008 34.987 24.619 0 12.16-0.427 44.373-0.64 87.040-142.421-30.891-172.459 68.693-172.459 68.693-23.296 59.093-56.96 74.88-56.96 74.88-46.379 31.744 3.584 31.104 3.584 31.104 51.413-3.584 78.421-52.736 78.421-52.736 45.653-78.293 119.851-55.68 149.12-42.581 4.608 33.109 17.792 55.68 32.427 68.48-113.707 12.8-233.216 56.832-233.216 253.013 0 55.893 19.84 101.547 52.693 137.387-5.76 12.928-23.040 64.981 4.48 135.509 0 0 42.88 13.739 140.8-52.48 40.96 11.392 84.48 17.024 128 17.28 43.52-0.256 87.040-5.888 128-17.28 97.28 66.219 140.16 52.48 140.16 52.48 27.52-70.528 10.24-122.581 5.12-135.509 32.64-35.84 52.48-81.493 52.48-137.387 0-196.693-119.68-240-233.6-252.587 17.92-15.36 34.56-46.763 34.56-94.72 0-68.523-0.64-123.563-0.64-140.203 0-13.44 8.96-29.44 35.2-24.32 204.843 67.157 351.403 259.157 351.403 485.077 0 282.752-229.248 512-512 512z" />
<glyph unicode="&#xe949;" glyph-name="jupyter1" d="M305.365 12.757c0-42.377-34.055-76.733-76.072-76.757h-0.002c-42.038 0-76.117 34.365-76.117 76.757v0c0 42.392 34.079 76.757 76.117 76.757v0c42.020-0.025 76.075-34.381 76.075-76.757v0zM878.165 899.115c0-0.013 0-0.028 0-0.043 0-33.626-27.030-60.885-60.373-60.885v0c-0.013 0-0.028 0-0.043 0-33.343 0-60.373 27.259-60.373 60.885 0 0.015 0 0.030 0 0.045v-0.002c0 33.626 27.030 60.885 60.373 60.885 0.015 0 0.030 0 0.045 0h-0.002c33.343 0 60.373-27.259 60.373-60.885v0zM212.992 817.664c-0.048-24.832-20.006-44.946-44.627-44.971h-0.002c-24.657 0-44.648 20.148-44.672 45.011v0.002c0.024 24.865 20.015 45.013 44.672 45.013 0 0 0 0 0 0v0c24.653-0.025 44.629-20.187 44.629-45.056v0zM525.995 752.939c160.811 0 301.227-58.88 374.101-146.091-28.189 79.898-78.519 146.117-143.601 193.202l-1.167 0.804c-63.669 46.072-143.314 73.703-229.412 73.728h-0.006c-86.089-0.035-165.718-27.664-230.53-74.522l1.154 0.794c-66.267-47.883-116.611-114.104-143.947-191.211l-0.864-2.794c73.088 87.040 213.504 146.091 374.272 146.091zM526.037 185.685c-160.768 0-301.227 58.923-374.101 146.133 28.2-79.902 78.544-146.122 143.642-193.201l1.169-0.805c63.639-46.085 143.249-73.742 229.316-73.813h0.017c86.109 0.039 165.753 27.684 230.571 74.564l-1.153-0.794c66.25 47.888 116.58 114.108 143.905 191.211l0.863 2.794c-73.045-87.211-213.461-146.133-374.272-146.133z" />
<glyph unicode="&#xe94a;" glyph-name="nextdotjs" d="M493.76 960c-7.522 0-13.218-0.055-15.292-0.286-2.202-0.226-9.212-0.896-15.514-1.399-145.442-13.111-281.673-91.575-367.957-212.173-48.047-67.059-78.775-143.117-90.381-223.689-4.105-28.117-4.608-36.425-4.608-74.556s0.512-46.438 4.608-74.564c27.819-192.256 164.655-353.788 350.238-413.632 33.233-10.714 68.267-18.018 108.105-22.421 15.514-1.707 82.577-1.707 98.091 0 68.766 7.607 127.027 24.619 184.478 53.943 8.811 4.506 10.513 5.705 9.314 6.711-0.802 0.593-38.345 50.935-83.383 111.787l-81.877 110.592-102.601 151.821c-56.452 83.473-102.899 151.723-103.3 151.723-0.401 0.111-0.798-67.358-1.003-149.717-0.286-144.222-0.397-150.025-2.202-153.429-2.603-4.907-4.608-6.903-8.806-9.105-3.2-1.596-6.007-1.899-21.12-1.899h-17.323l-4.599 2.901c-2.851 1.805-5.13 4.276-6.658 7.201l-0.049 0.103-2.103 4.506 0.226 200.661 0.286 200.764 3.098 3.904c1.604 2.103 5.009 4.8 7.407 6.101 4.105 2.005 5.709 2.206 23.023 2.206 20.425 0 23.825-0.798 29.129-6.601 1.506-1.609 57.058-85.278 123.52-186.061 1118.482-1775.293 1185.137-1875.11 1251.83-1974.9l-1049.829 1668.954 81.075-122.803 4.096 2.701c36.343 23.62 74.773 57.25 105.203 92.275 64.764 74.364 106.509 165.035 120.521 261.717 4.1 28.122 4.599 36.437 4.599 74.56 0 38.131-0.512 46.438-4.599 74.564-27.827 192.256-164.659 353.788-350.238 413.632-32.734 10.611-67.567 17.92-106.603 22.323-7.211 0.751-46.229 1.562-68.791 1.579zM667.349 652.075c14.818 0 17.417-0.226 20.723-2.005 4.809-2.398 8.704-7.006 10.112-11.806 0.794-2.603 0.998-58.253 0.794-183.654l-0.286-179.947-31.727 48.64-31.834 48.64v130.816c0 84.565 0.397 132.109 0.998 134.409 1.6 5.602 5.103 10.010 9.911 12.608 4.1 2.108 5.602 2.304 21.321 2.304z" />
<glyph unicode="&#xe94b;" glyph-name="numpy" d="M440.107 751.957l-171.102 86.37-187.776-93.717 175.727-88.247zM518.532 712.375l179.392-90.551-186.121-93.466-176 88.397zM758.118 837.018l184.29-92.407-164.821-82.782-179.759 90.675zM678.801 876.821l-165.905 83.179-164.13-81.89 170.957-86.221zM549.090 162.398v-226.398l200.99 100.297-0.226 226.496zM749.781 341.841l-0.222 224.119-200.469-99.652v-224.196zM991.074 383.846v-227.285l-171.426-85.555-0.124 226.253zM991.074 463.317v222.703l-171.746-85.376 0.145-224.567zM478.131 466.304l-135.377 68.070v-294.187s-165.564 352.273-180.902 383.915c-1.975 4.083-10.116 8.563-12.194 9.651-29.687 15.582-116.676 59.644-116.676 59.644v-519.744l120.337-64.324v271.676s163.806-314.773 165.461-318.208c1.66-3.443 18.112-36.617 35.678-48.273 23.403-15.488 123.699-75.802 123.699-75.802z" />
<glyph unicode="&#xe94c;" glyph-name="nuxtdotjs" d="M387.328 790.827c-25.088 0-50.219-12.331-64.597-36.992l-312.661-537.643c-28.672-49.323 7.253-110.976 64.597-110.976h244.053c-15.21 13.187-24.774 32.539-24.774 54.124 0 13.346 3.656 25.839 10.022 36.53l-0.181-0.329 236.672 405.888-88.576 152.405c-13.030 22.271-36.832 36.994-64.073 36.994-0.169 0-0.339-0.001-0.508-0.002h0.026zM703.36 666.155c-20.779 0-41.515-10.069-53.419-30.251l-258.688-439.893c-23.765-40.32 5.888-90.88 53.376-90.88h517.547c47.531 0 77.227 50.56 53.461 90.88l-258.859 439.893c-10.845 18.253-30.46 30.296-52.888 30.296-0.187 0-0.373-0.001-0.559-0.002h0.028z" />
<glyph unicode="&#xe94d;" glyph-name="pandas1" d="M722.005 960h111.915v-772.437h-111.915zM545.963 407.893h111.915v-109.653h-111.915zM545.963 708.139h111.915v-232.363h-111.915zM545.963 230.4h111.915v-232.363h-111.915zM190.123 708.437h111.872v-772.437h-111.915zM369.877 599.253h111.915v-109.653h-111.872zM369.877 422.144h111.915v-232.405h-111.872zM369.877 899.456h111.915v-232.363h-111.872z" />
<glyph unicode="&#xe94e;" glyph-name="postgresql" d="M1005.201 331.827c-0.643 1.939-1.457 3.62-2.456 5.17l0.054-0.089c-5.931 11.23-20.343 14.583-42.982 9.903-70.541-14.554-97.856-5.598-107.759 0.815 57.259 87.39 104.32 192.939 129.754 291.401 11.58 44.83 34.057 150.345 5.214 201.882-2.015 3.825-4.151 7.107-6.549 10.174l0.111-0.147c-55.014 70.298-135.757 108.006-233.498 109.043-63.774 0.674-118.208-14.767-132.954-20.454-4.893 1.021-12.386 2.243-19.945 3.255l-2.067 0.226c-16.652 3.17-35.963 5.141-55.678 5.449l-0.275 0.003c-50.441 0.785-94.029-11.273-130.125-35.866-36.578 13.7-204.322 70.187-308.134-3.362-57.98-41.075-84.745-114.492-79.556-218.214 1.745-34.901 21.628-142.251 53.005-245.060 19.618-64.277 40.051-115.281 61.158-152.832 23.595-42.419 48.038-67.981 73.143-76.352 19.089-6.362 48.329-6.148 79.279 31.057 34.185 41.109 67.853 77.901 82.97 94.161 18.564-10.048 38.673-15.467 59.307-16.094 0.004-0.068 0.010-0.128 0.019-0.188l-0.001 0.013c-2.946-3.474-6.399-7.715-9.779-12.016l-0.768-1.015c-14.46-18.355-17.468-22.174-64.009-31.757-13.235-2.731-48.401-9.98-48.913-34.624-0.107-5.222 1.404-9.852 3.921-13.943 9.681-18.052 39.322-26.014 43.307-27.012 56.939-14.229 106.854-3.925 143.846 28.958-0.725-95.189 3.307-188.476 14.737-217.062 9.438-23.59 32.503-81.259 105.353-81.25 10.688 0 22.455 1.242 35.396 4.015 76.028 16.303 109.043 49.903 121.813 123.985 6.413 37.15 17.135 122.679 22.989 174.985 0.721 2.999 1.523 5.15 2.432 5.811 0.030 0.021 2.974 2.010 18.227-1.31 0.526-0.121 1.171-0.223 1.827-0.285l0.063-0.005 10.833-0.951 0.636-0.043c36.13-1.638 81.553 6.084 107.998 18.381 27.469 12.749 77.043 44.045 68.058 71.245zM101.163 453.269c-31.723 103.927-50.257 208.431-51.725 237.734-4.634 92.646 17.796 157.137 66.658 191.689 78.366 55.407 206.498 23.074 260.608 5.547-0.137-0.137-0.282-0.26-0.418-0.401-86.349-87.211-84.301-236.203-84.087-245.312-0.009-3.511 0.282-8.486 0.691-15.33 1.485-25.058 4.25-71.697-3.136-124.518-6.865-49.084 8.265-97.126 41.506-131.806 3.439-3.588 7.031-6.959 10.743-10.129-14.797-15.846-46.95-50.884-81.173-92.058-24.222-29.12-40.947-23.539-46.447-21.705-16.721 5.577-34.688 25.050-52.826 56.418-20.463 35.797-41.109 86.686-60.395 149.871zM357.47 236.22c-7.3 1.826-13.956 4.83-18.441 7.561 3.793 1.681 10.129 3.849 20.621 6.012 54.754 11.268 63.211 19.226 81.677 42.675 4.233 5.376 9.028 11.465 15.671 18.884 1.382 1.544 2.458 3.393 3.115 5.431l0.030 0.107c7.287 6.455 11.622 4.689 18.641 1.779 6.656-2.756 13.133-11.093 15.765-20.275 1.242-4.335 2.641-12.565-1.929-18.961-38.583-54.007-94.788-53.308-135.151-43.213zM446.814 406.374l-2.24-6.016c-5.675-15.215-10.953-29.359-14.225-42.795-28.476 0.090-56.183 12.254-77.248 34.236-26.79 27.951-38.959 66.833-33.387 106.684 7.799 55.804 4.919 104.397 3.371 130.5-0.213 3.657-0.405 6.857-0.521 9.382 12.617 11.183 71.078 42.505 112.764 32.956 19.025-4.361 30.618-17.31 35.435-39.595 24.943-115.362 3.302-163.443-14.089-202.082-3.584-7.962-6.967-15.484-9.86-23.27zM760.998 211.281c-0.721-7.543-1.527-16.043-2.637-25.425l-6.229-18.701c-0.472-1.368-0.755-2.945-0.776-4.585v-0.010c-0.252-20.254-2.304-27.686-4.907-37.090-2.705-9.779-5.773-20.868-7.654-45.12-4.693-60.343-37.47-95.006-103.134-109.077-64.661-13.871-76.13 21.197-86.238 52.126-1.621 5.222-2.737 8.432-3.908 11.616l0.627-1.947c-9.19 24.994-8.154 60.241-6.716 109.018 0.704 23.945-1.062 81.122-14.089 112.905 0.188 12.51 0.452 25.212 0.811 38.050 0.003 0.12 0.005 0.26 0.005 0.401 0 1.571-0.241 3.086-0.687 4.51l0.029-0.107c-0.475 3.41-1.129 6.411-1.987 9.325l0.114-0.45c-5.231 18.274-17.975 33.562-33.267 39.898-6.076 2.517-17.229 7.134-30.626 3.708 2.859 11.776 7.812 25.067 13.184 39.462l2.257 6.059c2.539 6.827 5.717 13.897 9.088 21.385 18.197 40.431 43.119 95.799 16.068 220.894-10.129 46.852-43.964 69.73-95.249 64.418-30.75-3.183-58.876-15.59-72.909-22.703-4.121-2.061-6.856-3.54-9.559-5.068l1.205 0.627c3.917 47.206 18.714 135.428 74.057 191.245 4.029 4.059 8.247 7.908 12.649 11.542l0.292 0.234c2.359 0.47 4.439 1.431 6.211 2.775l-0.038-0.027c32.102 24.346 72.299 36.292 119.552 35.52 17.455-0.286 34.206-1.446 50.099-3.456 82.731-15.121 138.406-61.73 172.198-101.662 34.743-41.058 53.555-82.411 61.065-104.717-56.457 5.743-94.865-5.41-114.334-33.237-42.351-60.54 23.168-178.044 54.66-234.513 5.773-10.351 10.761-19.294 12.326-23.095 10.253-24.853 23.531-41.442 33.225-53.555 2.97-3.712 5.854-7.313 8.043-10.453-17.101-4.928-47.821-16.32-45.022-73.259-0.525-6.669-1.805-19.068-3.558-34.765-1.967-8.862-2.995-19.639-4.241-32.691zM798.993 280.448c-1.728 35.482 11.482 39.189 25.459 43.115 2.799 0.752 4.72 1.345 6.62 1.983l-0.86-0.25c1.708-1.519 3.576-2.964 5.54-4.277l0.186-0.117c24.333-16.064 67.511-17.975 128.29-5.734-8.602-7.548-22.14-17.041-40.674-25.647-17.485-8.119-46.75-14.208-74.551-15.514-30.707-1.434-46.332 3.443-50.010 6.443zM823.292 676.019c-0.252-14.967-2.313-28.553-4.497-42.739-2.347-15.258-4.779-31.036-5.393-50.185-0.606-18.637 1.724-38.012 3.977-56.751 4.548-37.845 9.216-76.813-8.853-115.26-2.597 4.476-5.279 9.884-7.634 15.464l-0.371 0.989c-2.249 5.444-7.121 14.191-13.871 26.291-26.266 47.108-87.782 157.423-56.29 202.436 16.192 23.155 57.207 24.154 92.932 19.755zM833.037 376.768c-2.030 2.607-3.222 4.098-4.422 5.583l0.782-1-1.515 1.894c30.985 51.179 24.926 101.811 19.533 146.709-2.214 18.423-4.305 35.823-3.776 52.164 0.55 17.327 2.842 32.183 5.056 46.554 2.726 17.707 5.495 36.023 4.732 57.621 0.572 2.266 0.802 4.941 0.503 8.115-1.95 20.715-25.596 82.688-73.788 138.795-25.924 30.178-63.556 63.881-114.726 87.019 22.404 4.548 52.599 8.683 86.374 7.932 87.531-1.946 156.783-34.709 205.833-97.382 0.958-1.238 1.898-2.634 2.747-4.091l0.099-0.185c30.852-57.839-11.785-267.738-127.433-449.728zM456.862 637.726c-1.067-7.654-13.18-18.027-26.5-18.027-0.004 0-0.010 0-0.015 0-1.212 0-2.404 0.087-3.57 0.255l0.133-0.016c-7.991 1.109-16.064 6.144-21.585 13.466-1.954 2.581-5.133 7.595-4.501 12.134 0.235 1.711 1.114 4.203 3.947 6.349 5.043 3.814 15.010 5.231 26.010 3.699 13.495-1.882 27.418-8.269 26.082-17.86zM795.23 655.279c0.474-3.379-2.091-8.576-6.532-13.235-2.914-3.059-9.045-8.367-17.404-9.523-0.961-0.141-2.071-0.222-3.2-0.222v0c-12.523 0-23.1 10.001-23.923 15.859-1.024 7.531 11.268 13.252 23.94 15.019s26.074-0.375 27.119-7.898z" />
<glyph unicode="&#xe94f;" glyph-name="python" d="M608 952.32l38.4-8.533 31.147-11.093 25.173-12.8 19.2-13.653 14.507-14.507 10.667-14.507 6.827-14.080 4.267-12.8 1.707-11.093 0.853-8.533-0.427-5.547v-227.84l-2.133-26.88-5.547-23.467-8.96-19.627-11.093-16.213-12.8-13.227-14.080-10.667-14.933-8.107-14.933-5.973-14.080-4.267-12.8-2.987-11.093-1.707-8.96-0.853h-254.72l-29.44-2.133-25.173-5.973-21.333-9.387-17.493-11.52-14.080-13.653-11.52-14.933-8.533-15.36-6.4-15.787-4.267-14.933-2.987-13.653-1.707-11.52-0.853-8.96v-130.56h-95.147l-8.96 1.28-11.947 2.987-13.653 5.12-14.933 7.68-15.36 11.093-15.36 15.36-14.933 19.627-13.653 25.173-11.947 31.147-8.96 37.547-5.973 44.8-2.133 52.48 2.56 52.053 6.827 44.373 10.24 37.12 13.653 30.293 15.36 24.32 17.067 18.773 17.92 14.080 17.92 10.24 17.067 6.827 15.36 4.267 13.653 2.133 10.24 0.427h6.827l2.56-0.427h348.16v35.413h-249.173l-0.427 117.333-0.853 15.787 2.133 14.507 4.693 13.227 7.253 11.947 10.667 11.093 13.227 9.813 16.213 8.533 18.773 7.68 21.76 6.4 24.747 5.12 27.307 4.267 30.293 2.56 32.853 1.707 35.84 0.853 54.187-2.133zM339.2 867.84l-9.813-14.080-3.413-17.493 3.413-17.493 9.813-14.507 14.080-9.387 17.493-3.84 17.493 3.84 14.080 9.387 9.813 14.507 3.413 17.493-3.413 17.493-9.813 14.080-14.080 9.387-17.493 3.84-17.493-3.84zM897.707 699.307l11.947-2.56 13.653-5.12 14.933-7.68 15.36-11.52 15.36-14.933 14.933-20.053 13.653-25.173 11.947-31.147 8.96-37.547 5.973-44.373 2.133-52.48-2.56-52.48-6.827-44.373-10.24-36.693-13.653-30.293-15.36-24.32-17.067-19.2-17.92-14.080-17.92-10.24-17.067-6.827-15.36-3.84-13.653-2.133-10.24-0.853-6.827 0.427h-350.72v-34.987h249.173l0.427-117.76 0.853-15.36-2.133-14.507-4.693-13.227-7.253-12.373-10.667-10.667-13.227-10.24-16.213-8.533-18.773-7.253-21.76-6.4-24.747-5.547-27.307-3.84-30.293-2.987-32.853-1.707-35.84-0.427-54.187 1.707-45.653 5.973-38.4 8.533-31.147 10.667-25.173 12.8-19.2 14.080-14.507 14.507-10.667 14.507-6.827 14.080-4.267 12.8-1.707 10.667-0.853 8.533 0.427 5.547v227.84l2.133 27.307 5.547 23.040 8.96 19.627 11.093 16.213 12.8 13.653 14.080 10.24 14.933 8.533 14.933 5.973 14.080 4.267 12.8 2.56 11.093 1.707 8.96 0.853 5.547 0.427h249.173l29.44 2.133 25.173 5.973 21.333 8.96 17.493 11.947 14.080 13.653 11.52 14.933 8.533 15.36 6.4 15.36 4.267 14.933 2.987 13.653 1.707 11.947 0.853 8.96v130.56h89.173l5.973-0.427zM621.653 91.307l-9.813-14.080-3.413-17.493 3.413-17.493 9.813-14.080 14.080-9.813 17.493-3.413 17.493 3.413 14.080 9.813 9.813 14.080 3.413 17.493-3.413 17.493-9.813 14.080-14.080 9.813-17.493 3.413-17.493-3.413z" />
<glyph unicode="&#xe950;" glyph-name="r" d="M512 842.837c-282.752 0-512-153.557-512-342.912 0-166.272 176.811-304.811 411.307-336.213v102.528c-124.757 39.040-210.133 117.547-210.133 208.085 0 129.493 174.251 234.411 389.12 234.411 214.955 0 373.632-71.808 373.632-234.411 0-84.309-42.624-144.171-113.579-182.272 3.84-2.816 7.424-5.461 11.008-9.216 7.211-6.357 10.667-15.488 15.872-23.211 90.795 61.867 146.773 146.645 146.773 240.256 0 189.44-229.248 342.955-512 342.955zM421.931 629.931v-576.683l174.635 0.085-0.085 225.749h46.933c9.6 0 13.696-2.816 23.424-10.667 11.605-9.387 30.507-41.899 30.507-41.899l92.331-173.355 197.419 0.085-122.197 205.909s-3.669 8.235-11.307 16.341c-7.080 7.039-15.272 12.969-24.287 17.501l-0.545 0.248c-18.005 9.131-49.024 18.517-49.024 18.517s152.661 11.264 152.661 163.243c0 151.979-159.744 154.88-159.744 154.88zM598.016 504.917l105.728-0.085s49.024 2.645 49.024-48.085c0-49.707-49.024-49.92-49.024-49.92h-105.728zM672.853 243.84c-21.077-2.091-43.179-3.371-65.707-3.755v-77.099c38.6 4.884 72.857 11.956 106.119 21.394l-4.999-1.213-20.096 38.016s-4.608 7.808-10.581 16.811c-1.664 2.304-3.413 4.181-4.736 5.845z" />
<glyph unicode="&#xe951;" glyph-name="react1" d="M607.147 447.829c0-52.674-42.689-95.378-95.358-95.403h-0.002c-52.689 0-95.403 42.713-95.403 95.403v0c0 52.674 42.689 95.378 95.358 95.403h0.002c52.689 0 95.403-42.713 95.403-95.403v0zM720.128 903.936c-57.429 0-132.565-40.96-208.555-111.872-75.947 70.528-151.125 111.019-208.512 111.019-17.493 0-33.408-3.968-47.189-11.861-58.667-33.835-71.808-139.264-41.515-271.573-129.877-40.107-214.357-104.235-214.357-171.819 0-67.84 84.907-132.139 215.168-171.947-30.037-132.821-16.64-238.421 42.155-272.213 13.653-7.979 29.44-11.733 47.019-11.733 57.387 0 132.565 40.96 208.555 111.957 75.947-70.571 151.125-111.061 208.512-111.061 17.493 0 33.408 3.84 47.189 11.733 58.624 33.792 71.808 139.221 41.515 271.573 129.408 39.765 213.888 104.021 213.888 171.691 0 67.84-84.907 132.139-215.168 172.032 30.037 132.693 16.64 238.379-42.155 272.213-13.568 7.851-29.355 11.819-46.592 11.861zM719.915 857.429v-0.256c9.6 0 17.323-1.877 23.808-5.419 28.416-16.299 40.747-78.293 31.147-158.037-2.304-19.627-6.059-40.32-10.667-61.44-40.96 10.069-85.589 17.792-132.565 22.784-28.16 38.613-57.387 73.685-86.827 104.405 67.925 63.147 131.712 97.792 175.147 97.92zM303.061 856.576c43.179 0 107.264-34.475 175.36-97.28-29.269-30.72-58.453-65.579-86.187-104.192-47.232-4.992-91.904-12.715-132.821-22.955-4.779 20.907-8.32 41.131-10.837 60.587-9.813 79.701 2.304 141.653 30.464 158.165 8.107 3.84 17.067 5.419 24.021 5.632zM511.36 726.443c19.413-19.968 38.827-42.325 58.027-66.731-18.773 0.853-37.973 1.451-57.387 1.451-19.627 0-39.040-0.427-58.027-1.451 18.773 24.405 38.187 46.763 57.387 66.773zM512 614.4c31.573 0 63.019-1.451 93.952-3.968 17.323-24.832 34.219-51.328 50.475-79.36 15.872-27.307 30.293-55.040 43.435-83.029-13.141-27.947-27.563-55.893-43.221-83.2-16.213-28.16-32.981-54.955-50.347-79.787-31.061-2.688-62.549-4.181-94.293-4.181-31.573 0-63.019 1.493-93.952 3.968-17.323 24.832-34.219 51.371-50.475 79.36-15.872 27.307-30.293 55.040-43.435 83.029 12.928 28.032 27.563 56.021 43.221 83.371 16.213 28.16 32.981 54.869 50.347 79.701 31.061 2.731 62.549 4.181 94.293 4.181zM356.907 603.563c-10.24-16.085-20.48-32.555-30.037-49.493-9.6-16.64-18.56-33.365-27.093-50.091-11.307 27.989-20.907 55.893-28.843 83.072 27.307 6.4 56.107 12.075 85.973 16.469zM666.667 603.563c29.653-4.395 58.24-9.813 85.589-16.512-7.68-26.965-17.28-54.699-28.16-82.475-8.533 16.64-17.493 33.408-27.307 50.091-9.6 16.725-19.84 33.024-30.080 48.896zM797.355 574.763c20.651-6.4 40.277-13.525 58.667-21.248 73.899-31.573 121.685-72.875 121.685-105.643-0.213-32.768-48-74.24-121.899-105.6-17.92-7.68-37.547-14.592-57.813-21.035-11.947 40.875-27.563 83.456-46.933 127.147 19.2 43.392 34.56 85.76 46.293 126.464zM225.835 574.592c11.861-40.96 27.52-83.499 46.933-127.147-19.2-43.392-34.645-85.76-46.336-126.464-20.651 6.4-40.277 13.568-58.453 21.333-73.899 31.445-121.685 72.789-121.685 105.557s47.787 74.325 121.685 105.643c17.92 7.68 37.547 14.592 57.856 21.077zM724.096 391.979c11.307-28.032 20.907-55.979 28.843-83.115-27.307-6.699-56.149-12.373-86.016-16.64 10.24 16 20.48 32.512 30.080 49.408 9.6 16.64 18.56 33.621 27.136 50.347zM299.776 391.125c8.533-16.725 17.493-33.408 27.307-50.133 9.813-16.64 19.84-32.939 30.080-48.768-29.653 4.352-58.24 9.813-85.589 16.469 7.68 26.88 17.323 54.699 28.16 82.475zM764.587 263.68c4.779-21.035 8.533-41.301 10.837-60.715 9.813-79.701-2.304-141.653-30.464-158.208-6.272-3.84-14.421-5.461-24.021-5.461-43.179 0-107.264 34.432-175.36 97.28 29.269 30.72 58.453 65.536 86.187 104.107 47.232 5.035 91.904 12.8 132.821 23.040zM259.84 263.253c40.96-9.984 85.589-17.707 132.565-22.699 28.16-38.613 57.387-73.685 86.827-104.363-68.053-63.275-131.925-97.92-175.36-97.92-9.387 0.213-17.323 2.133-23.595 5.632-28.416 16.213-40.747 78.251-31.147 157.995 2.304 19.627 6.059 40.277 10.667 61.355zM454.4 235.947c18.773-0.853 37.973-1.451 57.387-1.451 19.627 0 39.040 0.427 58.027 1.451-18.773-24.405-38.187-46.72-57.387-66.773-19.413 20.053-38.827 42.368-58.027 66.773z" />
<glyph unicode="&#xe952;" glyph-name="vuedotjs" d="M1024 891.307h-424.107l-87.893-151.467-87.893 151.467h-424.107l512-886.613zM512 359.253l-291.84 505.6h189.013l102.827-178.347 102.827 178.347h189.013z" />
<glyph unicode="&#xe953;" glyph-name="tools, measure, design, ruler, pencil" horiz-adv-x="992" d="M6.752 779.328c-27.104-27.136-21.312-65.344 0.256-86.88 0.864-0.832 87.488-83.584 209.312-205.408 3.136-3.136 7.232-4.672 11.328-4.672s8.192 1.568 11.328 4.672c6.24 6.24 6.24 16.384 0 22.624-18.368 18.368-35.84 35.744-52.416 52.192l50.848 50.848c6.24 6.24 6.24 16.384 0 22.624s-16.384 6.24-22.624 0l-50.976-50.976c-28.512 28.16-53.632 52.736-74.080 72.672l115.68 115.68c6.24 6.24 6.24 16.384 0 22.624s-16.384 6.24-22.624 0l-116.032-116.032c-23.552 22.816-37.12 35.776-37.344 36-6.752 6.752-15.616 25.76 0 41.376l160 160c6.176 6.272 22.624 18.72 40.672 0.768 0.8-0.896 81.6-92.672 204.928-216 6.24-6.24 16.384-6.24 22.624 0s6.24 16.384 0 22.624c-122.56 122.528-202.752 213.6-204.224 215.264-29.824 29.76-65.792 20.832-86.624 0l-160.032-160zM685.408 187.328c-6.24 6.24-16.384 6.24-22.624 0l-50.912-50.88c-15.52 15.712-31.808 32.16-48.96 49.312-6.24 6.24-16.384 6.24-22.624 0s-6.24-16.384 0-22.624c118.528-118.496 201.312-207.008 202.496-208.288 10.976-11.008 26.016-17.056 42.336-17.056v0c16.8 0 33.792 6.56 44.32 17.12l159.936 161.824c20.128 20.128 21.28 54.272 2.496 73.12l-214.592 214.56c-6.24 6.24-16.384 6.24-22.624 0s-6.24-16.384 0-22.624l214.592-214.56c6.4-6.4 5.184-20.224-2.528-27.936l-159.968-161.824c-3.68-3.712-12.032-7.68-21.632-7.68 0 0 0 0 0 0-5.504 0-13.376 1.344-19.328 7.328-0.32 0.352-13.728 14.656-36.992 39.008l116.608 116.608c6.24 6.24 6.24 16.384 0 22.624s-16.384 6.24-22.624 0l-116.128-116.128c-19.968 20.768-44.448 46.016-72.32 74.432l51.072 51.072c6.24 6.208 6.24 16.32 0 22.592zM-9.376-58.528c3.072-3.136 7.2-4.8 11.456-4.8 1.536 0 3.072 0.224 4.576 0.672l320 95.328c2.592 0.768 4.896 2.144 6.784 4.064l546.88 550.56c0.768 0.768 1.152 1.76 1.728 2.624l116.992 116.992c9.408 9.44 14.624 21.952 14.624 35.296 0 13.312-5.216 25.824-14.624 35.2l-167.52 167.488c-18.816 18.816-51.68 18.816-70.496 0l-119.648-119.648c-0.768-0.768-1.184-1.76-1.76-2.656l-547.712-547.744c-1.792-1.792-3.136-3.968-3.904-6.368l-101.12-310.88c-1.856-5.664-0.416-11.84 3.744-16.128zM653.6 791.328l33.248-33.248-496.736-498.080-55.264 12.544 518.752 518.784zM210.080 234.688l499.424 500.736 77.952-77.952-503.936-497.472h-73.44v74.688zM846.368 598.528l-519.808-523.328-18.464 64.064 501.984 495.584 36.288-36.32zM113.856 244.512l64.224-14.592v-85.92c0-8.832 7.168-16 16-16h83.968l20.288-70.4-271.616-80.928 87.136 267.84zM783.68 922.272c6.752 6.752 18.496 6.752 25.248 0l167.52-167.52c3.36-3.36 5.216-7.84 5.216-12.608 0-4.736-1.856-9.248-5.248-12.64l-107.872-107.904-192.736 192.736 107.872 107.936z" />
<glyph unicode="&#xe954;" glyph-name="book-open" horiz-adv-x="1344" d="M1200 928h-512c-12.704 0-23.68-4.352-32-11.584-8.32 7.232-19.296 11.584-32 11.584h-512c-27.808 0-48-20.192-48-48v-896c0-27.808 20.192-48 48-48h512c12.704 0 23.68 4.352 32 11.584 8.32-7.232 19.296-11.584 32-11.584h512c27.808 0 48 20.192 48 48v896c0 27.808-20.192 48-48 48zM624-32h-512c-10.016 0-16 5.984-16 16v896c0 10.016 5.984 16 16 16h512c10.016 0 16-5.984 16-16v-896c0-10.016-5.984-16-16-16zM1216-16c0-10.016-5.984-16-16-16h-512c-10.016 0-16 5.984-16 16v896c0 10.016 5.984 16 16 16h512c10.016 0 16-5.984 16-16v-896zM1296 864c-8.832 0-16-7.168-16-16v-832c0-8.832 7.168-16 16-16s16 7.168 16 16v832c0 8.832-7.168 16-16 16zM16 0c8.832 0 16 7.168 16 16v832c0 8.832-7.168 16-16 16s-16-7.168-16-16v-832c0-8.832 7.168-16 16-16zM560 640h-384c-8.832 0-16-7.168-16-16s7.168-16 16-16h384c8.832 0 16 7.168 16 16s-7.168 16-16 16zM560 512h-384c-8.832 0-16-7.168-16-16s7.168-16 16-16h384c8.832 0 16 7.168 16 16s-7.168 16-16 16zM560 768h-384c-8.832 0-16-7.168-16-16s7.168-16 16-16h384c8.832 0 16 7.168 16 16s-7.168 16-16 16zM560 384h-384c-8.832 0-16-7.168-16-16s7.168-16 16-16h384c8.832 0 16 7.168 16 16s-7.168 16-16 16zM560 256h-384c-8.832 0-16-7.168-16-16s7.168-16 16-16h384c8.832 0 16 7.168 16 16s-7.168 16-16 16zM560 128h-384c-8.832 0-16-7.168-16-16s7.168-16 16-16h384c8.832 0 16 7.168 16 16s-7.168 16-16 16zM1136 640h-384c-8.832 0-16-7.168-16-16s7.168-16 16-16h384c8.832 0 16 7.168 16 16s-7.168 16-16 16zM1136 512h-384c-8.832 0-16-7.168-16-16s7.168-16 16-16h384c8.832 0 16 7.168 16 16s-7.168 16-16 16zM1136 768h-384c-8.832 0-16-7.168-16-16s7.168-16 16-16h384c8.832 0 16 7.168 16 16s-7.168 16-16 16zM1136 384h-384c-8.832 0-16-7.168-16-16s7.168-16 16-16h384c8.832 0 16 7.168 16 16s-7.168 16-16 16zM1136 256h-384c-8.832 0-16-7.168-16-16s7.168-16 16-16h384c8.832 0 16 7.168 16 16s-7.168 16-16 16zM1136 128h-384c-8.832 0-16-7.168-16-16s7.168-16 16-16h384c8.832 0 16 7.168 16 16s-7.168 16-16 16z" />
<glyph unicode="&#xe955;" glyph-name="refresh, sync, reload, loading1" d="M852.192 832h155.808c8.832 0 16 7.168 16 16s-7.168 16-16 16h-192c-8.832 0-16-7.168-16-16v-192c0-8.832 7.168-16 16-16s16 7.168 16 16v150.944l19.552-19.552c90.656-90.656 140.608-211.2 140.608-339.392s-49.952-248.736-140.608-339.392c-134.56-134.592-336.128-177.024-513.632-108-8.224 3.264-17.504-0.864-20.704-9.088-3.2-8.256 0.864-17.536 9.12-20.704 60.288-23.424 123.136-34.816 185.504-34.816 133.44 0 264.512 52.16 362.336 150.016 96.704 96.672 149.984 225.28 149.984 362.016s-53.28 265.312-149.984 361.984l-21.984 21.984zM208 256c-8.832 0-16-7.168-16-16v-154.88l-22.816 22.816c-90.656 90.656-140.608 211.2-140.608 339.392s49.952 248.768 140.608 339.424c132.32 132.352 331.232 175.84 506.752 110.592 8.192-3.072 17.472 1.12 20.576 9.44 3.072 8.288-1.152 17.504-9.44 20.576-187.168 69.504-399.36 23.2-540.512-117.984-96.704-96.672-149.984-225.28-149.984-362.016s53.28-265.344 149.984-362.016l21.312-21.344h-151.872c-8.832 0-16-7.168-16-16s7.168-16 16-16h187.392c1.28-0.32 12.032 0.8 15.168 3.936 0.128 0.128 0.16 0.288 0.288 0.416 3.136 2.944 5.152 7.008 5.152 11.648v192c0 8.832-7.168 16-16 16z" />
</font>
</defs>
</svg>
